<svg width="300" height="113" viewBox="0 0 300 113" fill="none" xmlns="http://www.w3.org/2000/svg">
<rect x="7" y="9" width="293" height="104" fill="#30C65A"/>
<rect width="293" height="104" fill="#070836"/>
<path d="M87.4688 54.4961H80.7891V66H77.0195V37.5625H86.4336C89.6367 37.5625 92.0977 38.2917 93.8164 39.75C95.5482 41.2083 96.4141 43.3307 96.4141 46.1172C96.4141 47.888 95.9323 49.431 94.9688 50.7461C94.0182 52.0612 92.6901 53.0443 90.9844 53.6953L97.6641 65.7656V66H93.6406L87.4688 54.4961ZM80.7891 51.4297H86.5508C88.4128 51.4297 89.8906 50.9479 90.9844 49.9844C92.0911 49.0208 92.6445 47.7318 92.6445 46.1172C92.6445 44.3594 92.1172 43.0117 91.0625 42.0742C90.0208 41.1367 88.5104 40.6615 86.5312 40.6484H80.7891V51.4297ZM109.891 66.3906C107.026 66.3906 104.695 65.4531 102.898 63.5781C101.102 61.6901 100.203 59.1706 100.203 56.0195V55.3555C100.203 53.2591 100.6 51.3906 101.395 49.75C102.202 48.0964 103.322 46.8073 104.754 45.8828C106.199 44.9453 107.762 44.4766 109.441 44.4766C112.189 44.4766 114.324 45.3815 115.848 47.1914C117.371 49.0013 118.133 51.5924 118.133 54.9648V56.4688H103.816C103.868 58.5521 104.474 60.2383 105.633 61.5273C106.805 62.8034 108.289 63.4414 110.086 63.4414C111.362 63.4414 112.443 63.181 113.328 62.6602C114.214 62.1393 114.988 61.4492 115.652 60.5898L117.859 62.3086C116.089 65.0299 113.432 66.3906 109.891 66.3906ZM109.441 47.4453C107.983 47.4453 106.759 47.9792 105.77 49.0469C104.78 50.1016 104.168 51.5859 103.934 53.5H114.52V53.2266C114.415 51.3906 113.921 49.9714 113.035 48.9688C112.15 47.9531 110.952 47.4453 109.441 47.4453ZM121.473 55.2578C121.473 51.9635 122.234 49.3464 123.758 47.4062C125.281 45.4531 127.299 44.4766 129.812 44.4766C132.391 44.4766 134.402 45.388 135.848 47.2109L136.023 44.8672H139.324V65.4922C139.324 68.2266 138.51 70.3815 136.883 71.957C135.268 73.5326 133.094 74.3203 130.359 74.3203C128.836 74.3203 127.345 73.9948 125.887 73.3438C124.428 72.6927 123.315 71.8008 122.547 70.668L124.422 68.5C125.971 70.4141 127.866 71.3711 130.105 71.3711C131.863 71.3711 133.23 70.8763 134.207 69.8867C135.197 68.8971 135.691 67.5039 135.691 65.707V63.8906C134.246 65.5573 132.273 66.3906 129.773 66.3906C127.299 66.3906 125.294 65.3945 123.758 63.4023C122.234 61.4102 121.473 58.6953 121.473 55.2578ZM125.105 55.668C125.105 58.0508 125.594 59.9258 126.57 61.293C127.547 62.6471 128.914 63.3242 130.672 63.3242C132.951 63.3242 134.624 62.2891 135.691 60.2188V50.5703C134.585 48.5521 132.924 47.543 130.711 47.543C128.953 47.543 127.579 48.2266 126.59 49.5938C125.6 50.9609 125.105 52.9857 125.105 55.668ZM148.719 66H145.105V44.8672H148.719V66ZM144.812 39.2617C144.812 38.6758 144.988 38.181 145.34 37.7773C145.704 37.3737 146.238 37.1719 146.941 37.1719C147.645 37.1719 148.178 37.3737 148.543 37.7773C148.908 38.181 149.09 38.6758 149.09 39.2617C149.09 39.8477 148.908 40.3359 148.543 40.7266C148.178 41.1172 147.645 41.3125 146.941 41.3125C146.238 41.3125 145.704 41.1172 145.34 40.7266C144.988 40.3359 144.812 39.8477 144.812 39.2617ZM166.824 60.3945C166.824 59.418 166.453 58.6628 165.711 58.1289C164.982 57.582 163.699 57.1133 161.863 56.7227C160.04 56.332 158.589 55.8633 157.508 55.3164C156.44 54.7695 155.646 54.1185 155.125 53.3633C154.617 52.6081 154.363 51.7096 154.363 50.668C154.363 48.9362 155.092 47.4714 156.551 46.2734C158.022 45.0755 159.897 44.4766 162.176 44.4766C164.572 44.4766 166.512 45.0951 167.996 46.332C169.493 47.569 170.242 49.151 170.242 51.0781H166.609C166.609 50.0885 166.186 49.2357 165.34 48.5195C164.507 47.8034 163.452 47.4453 162.176 47.4453C160.861 47.4453 159.832 47.7318 159.09 48.3047C158.348 48.8776 157.977 49.6263 157.977 50.5508C157.977 51.4232 158.322 52.0807 159.012 52.5234C159.702 52.9661 160.945 53.3893 162.742 53.793C164.552 54.1966 166.017 54.6784 167.137 55.2383C168.257 55.7982 169.083 56.4753 169.617 57.2695C170.164 58.0508 170.438 59.0078 170.438 60.1406C170.438 62.0286 169.682 63.5456 168.172 64.6914C166.661 65.8242 164.702 66.3906 162.293 66.3906C160.6 66.3906 159.103 66.0911 157.801 65.4922C156.499 64.8932 155.477 64.0599 154.734 62.9922C154.005 61.9115 153.641 60.7461 153.641 59.4961H157.254C157.319 60.707 157.801 61.6706 158.699 62.3867C159.611 63.0898 160.809 63.4414 162.293 63.4414C163.66 63.4414 164.754 63.168 165.574 62.6211C166.408 62.0612 166.824 61.319 166.824 60.3945ZM180.047 39.75V44.8672H183.992V47.6602H180.047V60.7656C180.047 61.612 180.223 62.25 180.574 62.6797C180.926 63.0964 181.525 63.3047 182.371 63.3047C182.788 63.3047 183.361 63.2266 184.09 63.0703V66C183.139 66.2604 182.215 66.3906 181.316 66.3906C179.702 66.3906 178.484 65.9023 177.664 64.9258C176.844 63.9492 176.434 62.5625 176.434 60.7656V47.6602H172.586V44.8672H176.434V39.75H180.047ZM197 66.3906C194.135 66.3906 191.805 65.4531 190.008 63.5781C188.211 61.6901 187.312 59.1706 187.312 56.0195V55.3555C187.312 53.2591 187.71 51.3906 188.504 49.75C189.311 48.0964 190.431 46.8073 191.863 45.8828C193.309 44.9453 194.871 44.4766 196.551 44.4766C199.298 44.4766 201.434 45.3815 202.957 47.1914C204.48 49.0013 205.242 51.5924 205.242 54.9648V56.4688H190.926C190.978 58.5521 191.583 60.2383 192.742 61.5273C193.914 62.8034 195.398 63.4414 197.195 63.4414C198.471 63.4414 199.552 63.181 200.438 62.6602C201.323 62.1393 202.098 61.4492 202.762 60.5898L204.969 62.3086C203.198 65.0299 200.542 66.3906 197 66.3906ZM196.551 47.4453C195.092 47.4453 193.868 47.9792 192.879 49.0469C191.889 50.1016 191.277 51.5859 191.043 53.5H201.629V53.2266C201.525 51.3906 201.03 49.9714 200.145 48.9688C199.259 47.9531 198.061 47.4453 196.551 47.4453ZM219.656 48.1094C219.109 48.0182 218.517 47.9727 217.879 47.9727C215.509 47.9727 213.901 48.9818 213.055 51V66H209.441V44.8672H212.957L213.016 47.3086C214.201 45.4206 215.88 44.4766 218.055 44.4766C218.758 44.4766 219.292 44.5677 219.656 44.75V48.1094Z" fill="white"/>
</svg>
