<svg width="706" height="59" viewBox="0 0 706 59" fill="none" xmlns="http://www.w3.org/2000/svg">
<rect width="148" height="59" fill="#070836"/>
<path d="M30.5605 32.4736H16.498V47H9.17383V11.4531H32.3184V17.3857H16.498V26.5654H30.5605V32.4736ZM34.4668 33.5479C34.4668 30.9274 34.9714 28.5918 35.9805 26.541C36.9896 24.4902 38.4382 22.9033 40.3262 21.7803C42.2305 20.6572 44.4359 20.0957 46.9424 20.0957C50.5068 20.0957 53.4121 21.1862 55.6582 23.3672C57.9206 25.5482 59.182 28.5104 59.4424 32.2539L59.4912 34.0605C59.4912 38.1133 58.36 41.3685 56.0977 43.8262C53.8353 46.2676 50.7998 47.4883 46.9912 47.4883C43.1826 47.4883 40.139 46.2676 37.8604 43.8262C35.598 41.3848 34.4668 38.0645 34.4668 33.8652V33.5479ZM41.5225 34.0605C41.5225 36.5671 41.9945 38.4876 42.9385 39.8223C43.8825 41.1406 45.2334 41.7998 46.9912 41.7998C48.7002 41.7998 50.0348 41.1488 50.9951 39.8467C51.9554 38.5283 52.4355 36.4287 52.4355 33.5479C52.4355 31.0902 51.9554 29.1859 50.9951 27.835C50.0348 26.484 48.6839 25.8086 46.9424 25.8086C45.2171 25.8086 43.8825 26.484 42.9385 27.835C41.9945 29.1696 41.5225 31.2448 41.5225 34.0605ZM74.8232 41.7998C76.1253 41.7998 77.1833 41.4417 77.9971 40.7256C78.8109 40.0094 79.234 39.0573 79.2666 37.8691H85.8828C85.8665 39.6595 85.3783 41.3034 84.418 42.8008C83.4577 44.2819 82.1393 45.4375 80.4629 46.2676C78.8027 47.0814 76.9635 47.4883 74.9453 47.4883C71.1693 47.4883 68.1908 46.292 66.0098 43.8994C63.8288 41.4906 62.7383 38.1702 62.7383 33.9385V33.4746C62.7383 29.4056 63.8206 26.1585 65.9854 23.7334C68.1501 21.3083 71.1204 20.0957 74.8965 20.0957C78.2005 20.0957 80.8454 21.0397 82.8311 22.9277C84.833 24.7995 85.8503 27.2979 85.8828 30.4229H79.2666C79.234 29.0557 78.8109 27.9489 77.9971 27.1025C77.1833 26.2399 76.109 25.8086 74.7744 25.8086C73.1305 25.8086 71.8854 26.4108 71.0391 27.6152C70.209 28.8034 69.7939 30.7402 69.7939 33.4258V34.1582C69.7939 36.8763 70.209 38.8294 71.0391 40.0176C71.8691 41.2057 73.1305 41.7998 74.8232 41.7998ZM105.731 44.3145C103.99 46.4303 101.581 47.4883 98.5049 47.4883C95.6729 47.4883 93.5081 46.6745 92.0107 45.0469C90.5296 43.4193 89.7728 41.0348 89.7402 37.8936V20.584H96.7959V37.6494C96.7959 40.4001 98.0492 41.7754 100.556 41.7754C102.948 41.7754 104.592 40.9453 105.487 39.2852V20.584H112.567V47H105.927L105.731 44.3145ZM132.196 39.7002C132.196 38.8376 131.765 38.1621 130.902 37.6738C130.056 37.1693 128.689 36.7217 126.801 36.3311C120.518 35.0127 117.377 32.3434 117.377 28.3232C117.377 25.9795 118.345 24.0264 120.282 22.4639C122.235 20.8851 124.783 20.0957 127.924 20.0957C131.277 20.0957 133.954 20.8851 135.956 22.4639C137.974 24.0426 138.983 26.0934 138.983 28.6162H131.928C131.928 27.6071 131.602 26.777 130.951 26.126C130.3 25.4587 129.283 25.125 127.899 25.125C126.711 25.125 125.792 25.3936 125.141 25.9307C124.49 26.4678 124.164 27.1514 124.164 27.9814C124.164 28.7627 124.53 29.3975 125.263 29.8857C126.011 30.3577 127.265 30.7728 129.022 31.1309C130.78 31.4727 132.261 31.8633 133.466 32.3027C137.193 33.6699 139.057 36.0381 139.057 39.4072C139.057 41.8161 138.023 43.7692 135.956 45.2666C133.889 46.7477 131.22 47.4883 127.948 47.4883C125.735 47.4883 123.765 47.0977 122.04 46.3164C120.331 45.5189 118.988 44.4365 118.012 43.0693C117.035 41.6859 116.547 40.1966 116.547 38.6016H123.236C123.301 39.8548 123.765 40.8151 124.628 41.4824C125.491 42.1497 126.646 42.4834 128.095 42.4834C129.446 42.4834 130.463 42.2311 131.146 41.7266C131.846 41.2057 132.196 40.5303 132.196 39.7002Z" fill="white"/>
<path d="M154.975 33.5479C154.975 30.9274 155.479 28.5918 156.488 26.541C157.497 24.4902 158.946 22.9033 160.834 21.7803C162.738 20.6572 164.944 20.0957 167.45 20.0957C171.015 20.0957 173.92 21.1862 176.166 23.3672C178.428 25.5482 179.69 28.5104 179.95 32.2539L179.999 34.0605C179.999 38.1133 178.868 41.3685 176.605 43.8262C174.343 46.2676 171.308 47.4883 167.499 47.4883C163.69 47.4883 160.647 46.2676 158.368 43.8262C156.106 41.3848 154.975 38.0645 154.975 33.8652V33.5479ZM162.03 34.0605C162.03 36.5671 162.502 38.4876 163.446 39.8223C164.39 41.1406 165.741 41.7998 167.499 41.7998C169.208 41.7998 170.543 41.1488 171.503 39.8467C172.463 38.5283 172.943 36.4287 172.943 33.5479C172.943 31.0902 172.463 29.1859 171.503 27.835C170.543 26.484 169.192 25.8086 167.45 25.8086C165.725 25.8086 164.39 26.484 163.446 27.835C162.502 29.1696 162.03 31.2448 162.03 34.0605ZM190.839 20.584L191.059 23.6357C192.947 21.2757 195.478 20.0957 198.651 20.0957C201.451 20.0957 203.534 20.9176 204.901 22.5615C206.269 24.2054 206.968 26.6631 207.001 29.9346V47H199.945V30.1055C199.945 28.6081 199.62 27.5257 198.969 26.8584C198.318 26.1748 197.235 25.833 195.722 25.833C193.736 25.833 192.247 26.6794 191.254 28.3721V47H184.198V20.584H190.839ZM247.797 37.4053L251.264 20.584H258.075L251.337 47H245.429L240.424 30.374L235.419 47H229.535L222.797 20.584H229.608L233.051 37.3809L237.885 20.584H242.987L247.797 37.4053ZM268.476 23.4648C270.347 21.2188 272.699 20.0957 275.531 20.0957C281.26 20.0957 284.166 23.4242 284.247 30.0811V47H277.191V30.2764C277.191 28.7627 276.866 27.6478 276.215 26.9316C275.564 26.1992 274.481 25.833 272.968 25.833C270.901 25.833 269.403 26.6305 268.476 28.2256V47H261.42V9.5H268.476V23.4648ZM304.877 47C304.551 46.3652 304.315 45.5758 304.169 44.6318C302.46 46.5361 300.238 47.4883 297.504 47.4883C294.916 47.4883 292.768 46.7396 291.059 45.2422C289.366 43.7448 288.52 41.8568 288.52 39.5781C288.52 36.7786 289.553 34.6302 291.62 33.1328C293.703 31.6354 296.706 30.8786 300.629 30.8623H303.876V29.3486C303.876 28.1279 303.559 27.1514 302.924 26.4189C302.305 25.6865 301.321 25.3203 299.97 25.3203C298.782 25.3203 297.846 25.6051 297.162 26.1748C296.495 26.7445 296.161 27.5257 296.161 28.5186H289.105C289.105 26.9886 289.577 25.5726 290.521 24.2705C291.465 22.9684 292.8 21.9512 294.525 21.2188C296.251 20.4701 298.188 20.0957 300.336 20.0957C303.591 20.0957 306.171 20.9176 308.075 22.5615C309.996 24.1891 310.956 26.484 310.956 29.4463V40.8965C310.972 43.403 311.322 45.2992 312.006 46.585V47H304.877ZM299.042 42.0928C300.084 42.0928 301.044 41.8649 301.923 41.4092C302.802 40.9372 303.453 40.3105 303.876 39.5293V34.9883H301.239C297.707 34.9883 295.827 36.209 295.6 38.6504L295.575 39.0654C295.575 39.9443 295.884 40.6686 296.503 41.2383C297.121 41.8079 297.968 42.0928 299.042 42.0928ZM324.823 14.0898V20.584H329.34V25.7598H324.823V38.9434C324.823 39.9199 325.01 40.6198 325.385 41.043C325.759 41.4661 326.475 41.6777 327.533 41.6777C328.314 41.6777 329.006 41.6208 329.608 41.5068V46.8535C328.225 47.2767 326.801 47.4883 325.336 47.4883C320.388 47.4883 317.865 44.9899 317.768 39.9932V25.7598H313.91V20.584H317.768V14.0898H324.823ZM352.338 20.584L352.558 23.5381C354.429 21.2432 356.96 20.0957 360.15 20.0957C363.552 20.0957 365.888 21.4385 367.157 24.124C369.013 21.4385 371.658 20.0957 375.092 20.0957C377.956 20.0957 380.089 20.9339 381.488 22.6104C382.888 24.2705 383.588 26.777 383.588 30.1299V47H376.508V30.1543C376.508 28.6569 376.215 27.5664 375.629 26.8828C375.043 26.1829 374.009 25.833 372.528 25.833C370.412 25.833 368.948 26.8421 368.134 28.8604L368.158 47H361.103V30.1787C361.103 28.6488 360.801 27.542 360.199 26.8584C359.597 26.1748 358.572 25.833 357.123 25.833C355.121 25.833 353.673 26.6631 352.777 28.3232V47H345.722V20.584H352.338ZM404.34 47C404.014 46.3652 403.778 45.5758 403.632 44.6318C401.923 46.5361 399.701 47.4883 396.967 47.4883C394.379 47.4883 392.23 46.7396 390.521 45.2422C388.829 43.7448 387.982 41.8568 387.982 39.5781C387.982 36.7786 389.016 34.6302 391.083 33.1328C393.166 31.6354 396.169 30.8786 400.092 30.8623H403.339V29.3486C403.339 28.1279 403.021 27.1514 402.387 26.4189C401.768 25.6865 400.784 25.3203 399.433 25.3203C398.244 25.3203 397.309 25.6051 396.625 26.1748C395.958 26.7445 395.624 27.5257 395.624 28.5186H388.568C388.568 26.9886 389.04 25.5726 389.984 24.2705C390.928 22.9684 392.263 21.9512 393.988 21.2188C395.714 20.4701 397.65 20.0957 399.799 20.0957C403.054 20.0957 405.634 20.9176 407.538 22.5615C409.459 24.1891 410.419 26.484 410.419 29.4463V40.8965C410.435 43.403 410.785 45.2992 411.469 46.585V47H404.34ZM398.505 42.0928C399.547 42.0928 400.507 41.8649 401.386 41.4092C402.265 40.9372 402.916 40.3105 403.339 39.5293V34.9883H400.702C397.17 34.9883 395.29 36.209 395.062 38.6504L395.038 39.0654C395.038 39.9443 395.347 40.6686 395.966 41.2383C396.584 41.8079 397.431 42.0928 398.505 42.0928ZM424.286 14.0898V20.584H428.803V25.7598H424.286V38.9434C424.286 39.9199 424.473 40.6198 424.848 41.043C425.222 41.4661 425.938 41.6777 426.996 41.6777C427.777 41.6777 428.469 41.6208 429.071 41.5068V46.8535C427.688 47.2767 426.264 47.4883 424.799 47.4883C419.851 47.4883 417.328 44.9899 417.23 39.9932V25.7598H413.373V20.584H417.23V14.0898H424.286ZM441.181 14.0898V20.584H445.697V25.7598H441.181V38.9434C441.181 39.9199 441.368 40.6198 441.742 41.043C442.117 41.4661 442.833 41.6777 443.891 41.6777C444.672 41.6777 445.364 41.6208 445.966 41.5068V46.8535C444.582 47.2767 443.158 47.4883 441.693 47.4883C436.745 47.4883 434.223 44.9899 434.125 39.9932V25.7598H430.268V20.584H434.125V14.0898H441.181ZM461.786 47.4883C457.912 47.4883 454.755 46.3001 452.313 43.9238C449.888 41.5475 448.676 38.3818 448.676 34.4268V33.7432C448.676 31.0902 449.188 28.722 450.214 26.6387C451.239 24.5391 452.688 22.9277 454.56 21.8047C456.448 20.6654 458.596 20.0957 461.005 20.0957C464.618 20.0957 467.458 21.235 469.525 23.5137C471.609 25.7923 472.65 29.0231 472.65 33.2061V36.0869H455.829C456.057 37.8122 456.741 39.1956 457.88 40.2373C459.035 41.279 460.492 41.7998 462.25 41.7998C464.968 41.7998 467.092 40.8151 468.622 38.8457L472.089 42.7275C471.031 44.2249 469.599 45.3968 467.792 46.2432C465.985 47.0732 463.983 47.4883 461.786 47.4883ZM460.98 25.8086C459.581 25.8086 458.441 26.2806 457.562 27.2246C456.7 28.1686 456.146 29.5195 455.902 31.2773H465.717V30.7158C465.684 29.1533 465.261 27.9489 464.447 27.1025C463.633 26.2399 462.478 25.8086 460.98 25.8086ZM491.522 27.2002C490.562 27.07 489.716 27.0049 488.983 27.0049C486.314 27.0049 484.564 27.9082 483.734 29.7148V47H476.679V20.584H483.344L483.539 23.7334C484.955 21.3083 486.916 20.0957 489.423 20.0957C490.204 20.0957 490.937 20.2015 491.62 20.4131L491.522 27.2002ZM509.247 39.7002C509.247 38.8376 508.816 38.1621 507.953 37.6738C507.107 37.1693 505.74 36.7217 503.852 36.3311C497.569 35.0127 494.428 32.3434 494.428 28.3232C494.428 25.9795 495.396 24.0264 497.333 22.4639C499.286 20.8851 501.833 20.0957 504.975 20.0957C508.327 20.0957 511.005 20.8851 513.007 22.4639C515.025 24.0426 516.034 26.0934 516.034 28.6162H508.979C508.979 27.6071 508.653 26.777 508.002 26.126C507.351 25.4587 506.334 25.125 504.95 25.125C503.762 25.125 502.842 25.3936 502.191 25.9307C501.54 26.4678 501.215 27.1514 501.215 27.9814C501.215 28.7627 501.581 29.3975 502.313 29.8857C503.062 30.3577 504.315 30.7728 506.073 31.1309C507.831 31.4727 509.312 31.8633 510.517 32.3027C514.244 33.6699 516.107 36.0381 516.107 39.4072C516.107 41.8161 515.074 43.7692 513.007 45.2666C510.94 46.7477 508.271 47.4883 504.999 47.4883C502.785 47.4883 500.816 47.0977 499.091 46.3164C497.382 45.5189 496.039 44.4365 495.062 43.0693C494.086 41.6859 493.598 40.1966 493.598 38.6016H500.287C500.352 39.8548 500.816 40.8151 501.679 41.4824C502.541 42.1497 503.697 42.4834 505.146 42.4834C506.496 42.4834 507.514 42.2311 508.197 41.7266C508.897 41.2057 509.247 40.5303 509.247 39.7002ZM539.74 20.584L539.96 23.5381C541.832 21.2432 544.363 20.0957 547.553 20.0957C550.954 20.0957 553.29 21.4385 554.56 24.124C556.415 21.4385 559.06 20.0957 562.494 20.0957C565.359 20.0957 567.491 20.9339 568.891 22.6104C570.29 24.2705 570.99 26.777 570.99 30.1299V47H563.91V30.1543C563.91 28.6569 563.617 27.5664 563.031 26.8828C562.445 26.1829 561.412 25.833 559.931 25.833C557.815 25.833 556.35 26.8421 555.536 28.8604L555.561 47H548.505V30.1787C548.505 28.6488 548.204 27.542 547.602 26.8584C546.999 26.1748 545.974 25.833 544.525 25.833C542.523 25.833 541.075 26.6631 540.18 28.3232V47H533.124V20.584H539.74ZM575.336 33.5479C575.336 30.9274 575.84 28.5918 576.85 26.541C577.859 24.4902 579.307 22.9033 581.195 21.7803C583.1 20.6572 585.305 20.0957 587.812 20.0957C591.376 20.0957 594.281 21.1862 596.527 23.3672C598.79 25.5482 600.051 28.5104 600.312 32.2539L600.36 34.0605C600.36 38.1133 599.229 41.3685 596.967 43.8262C594.704 46.2676 591.669 47.4883 587.86 47.4883C584.052 47.4883 581.008 46.2676 578.729 43.8262C576.467 41.3848 575.336 38.0645 575.336 33.8652V33.5479ZM582.392 34.0605C582.392 36.5671 582.864 38.4876 583.808 39.8223C584.752 41.1406 586.103 41.7998 587.86 41.7998C589.569 41.7998 590.904 41.1488 591.864 39.8467C592.825 38.5283 593.305 36.4287 593.305 33.5479C593.305 31.0902 592.825 29.1859 591.864 27.835C590.904 26.484 589.553 25.8086 587.812 25.8086C586.086 25.8086 584.752 26.484 583.808 27.835C582.864 29.1696 582.392 31.2448 582.392 34.0605ZM619.013 39.7002C619.013 38.8376 618.581 38.1621 617.719 37.6738C616.872 37.1693 615.505 36.7217 613.617 36.3311C607.335 35.0127 604.193 32.3434 604.193 28.3232C604.193 25.9795 605.162 24.0264 607.099 22.4639C609.052 20.8851 611.599 20.0957 614.74 20.0957C618.093 20.0957 620.771 20.8851 622.772 22.4639C624.791 24.0426 625.8 26.0934 625.8 28.6162H618.744C618.744 27.6071 618.419 26.777 617.768 26.126C617.117 25.4587 616.099 25.125 614.716 25.125C613.528 25.125 612.608 25.3936 611.957 25.9307C611.306 26.4678 610.98 27.1514 610.98 27.9814C610.98 28.7627 611.347 29.3975 612.079 29.8857C612.828 30.3577 614.081 30.7728 615.839 31.1309C617.597 31.4727 619.078 31.8633 620.282 32.3027C624.009 33.6699 625.873 36.0381 625.873 39.4072C625.873 41.8161 624.84 43.7692 622.772 45.2666C620.705 46.7477 618.036 47.4883 614.765 47.4883C612.551 47.4883 610.582 47.0977 608.856 46.3164C607.147 45.5189 605.805 44.4365 604.828 43.0693C603.852 41.6859 603.363 40.1966 603.363 38.6016H610.053C610.118 39.8548 610.582 40.8151 611.444 41.4824C612.307 42.1497 613.463 42.4834 614.911 42.4834C616.262 42.4834 617.279 42.2311 617.963 41.7266C618.663 41.2057 619.013 40.5303 619.013 39.7002ZM638.886 14.0898V20.584H643.402V25.7598H638.886V38.9434C638.886 39.9199 639.073 40.6198 639.447 41.043C639.822 41.4661 640.538 41.6777 641.596 41.6777C642.377 41.6777 643.069 41.6208 643.671 41.5068V46.8535C642.287 47.2767 640.863 47.4883 639.398 47.4883C634.451 47.4883 631.928 44.9899 631.83 39.9932V25.7598H627.973V20.584H631.83V14.0898H638.886ZM647.699 43.5332C647.699 42.4102 648.074 41.4987 648.822 40.7988C649.587 40.099 650.539 39.749 651.679 39.749C652.834 39.749 653.786 40.099 654.535 40.7988C655.3 41.4987 655.683 42.4102 655.683 43.5332C655.683 44.64 655.308 45.5433 654.56 46.2432C653.811 46.9268 652.851 47.2686 651.679 47.2686C650.523 47.2686 649.571 46.9268 648.822 46.2432C648.074 45.5433 647.699 44.64 647.699 43.5332Z" fill="#070836"/>
</svg>
