<svg width="721" height="954" viewBox="0 0 721 954" fill="none" xmlns="http://www.w3.org/2000/svg">
<circle cx="345.5" cy="291.5" r="154.5" fill="#35CAD3"/>
<path d="M663.12 351.283C694.79 441.461 500.462 591.829 229.076 687.137C-42.3106 782.446 -287.986 786.605 -319.656 696.427C-351.326 606.248 -156.998 455.881 114.388 360.572C385.775 265.263 631.45 261.104 663.12 351.283ZM-231.575 665.493C-205.582 739.507 -3.94352 736.094 218.797 657.869C441.537 579.644 601.033 456.23 575.039 382.216C549.046 308.202 347.408 311.616 124.667 389.84C-98.0733 468.065 -257.568 591.479 -231.575 665.493Z" fill="#35A4D3"/>
<circle cx="161" cy="571" r="383" fill="#070836"/>
<circle cx="346" cy="292" r="126" fill="#54E07B"/>
<path d="M665.868 380.427C661.559 414.294 633.637 454.417 585.011 496.618C536.385 538.819 468.834 581.554 389.394 620.372C309.954 659.19 221.531 692.67 133.336 717.325C45.1406 741.98 -39.6004 756.908 -112.06 760.554L-61.1908 718.126C-1.7192 715.133 67.8321 702.881 140.218 682.645C212.605 662.41 285.178 634.931 350.378 603.071C415.579 571.212 471.021 536.137 510.931 501.5C550.841 466.864 573.758 433.932 577.294 406.137L665.868 380.427Z" fill="#35A4D3"/>
<path d="M59.226 458H30V487.262H59.226V458Z" stroke="#3F3D56" stroke-width="2" stroke-miterlimit="10"/>
<path d="M380 439.178C380 505.691 340.508 528.915 291.792 528.915C243.077 528.915 203.585 505.691 203.585 439.178C203.585 372.665 291.792 288.05 291.792 288.05C291.792 288.05 380 372.665 380 439.178Z" fill="#F2F2F2"/>
<path d="M288.579 518.741L289.483 463.075L327.079 394.209L289.624 454.343L290.031 429.313L315.941 379.489L290.138 422.689V422.69L290.869 377.673L318.615 338.007L290.983 370.594L291.439 288.05L288.572 397.324L288.807 392.816L260.598 349.582L288.355 401.469L285.726 451.745L285.649 450.411L253.127 404.914L285.549 455.125L285.221 461.413L285.162 461.507L285.189 462.023L278.521 589.577H287.431L288.499 523.693L320.842 473.605L288.579 518.741Z" fill="#3F3D56"/>
<path d="M282.31 598.673C299.248 598.673 312.98 594.6 312.98 589.575C312.98 584.55 299.248 580.476 282.31 580.476C265.371 580.476 251.64 584.55 251.64 589.575C251.64 594.6 265.371 598.673 282.31 598.673Z" fill="#3F3D56"/>
<path d="M146.35 588.094C181.771 588.094 210.485 559.344 210.485 523.879C210.485 488.414 181.771 459.664 146.35 459.664C110.93 459.664 82.2155 488.414 82.2155 523.879C82.2155 559.344 110.93 588.094 146.35 588.094Z" fill="#2F2E41"/>
<path d="M156.092 609.228H175.576V574.275H156.092V609.228Z" fill="#2F2E41"/>
<path d="M117.125 609.228H136.609V574.275H117.125V609.228Z" fill="#2F2E41"/>
<path d="M125.851 618.165C133.617 613.676 138.55 607.673 136.869 604.757C135.187 601.841 127.529 603.117 119.763 607.606C111.997 612.095 107.064 618.098 108.746 621.014C110.427 623.93 118.086 622.654 125.851 618.165Z" fill="#2F2E41"/>
<path d="M164.008 618.165C171.774 613.676 176.706 607.673 175.025 604.757C173.343 601.841 165.685 603.117 157.919 607.606C150.153 612.095 145.221 618.098 146.902 621.014C148.583 623.93 156.242 622.654 164.008 618.165Z" fill="#2F2E41"/>
<path d="M144.727 529.569C156.833 529.569 166.646 519.743 166.646 507.622C166.646 495.501 156.833 485.675 144.727 485.675C132.621 485.675 122.807 495.501 122.807 507.622C122.807 519.743 132.621 529.569 144.727 529.569Z" fill="white"/>
<path d="M137.262 505.59C141.297 505.59 144.568 502.315 144.568 498.274C144.568 494.234 141.297 490.959 137.262 490.959C133.226 490.959 129.955 494.234 129.955 498.274C129.955 502.315 133.226 505.59 137.262 505.59Z" fill="#3F3D56"/>
<path d="M208.563 464.161C213.742 440.94 197.188 417.476 171.589 411.753C145.99 406.03 121.04 420.215 115.862 443.436C110.683 466.657 127.648 475.221 153.247 480.944C178.846 486.668 203.385 487.382 208.563 464.161Z" fill="#30C65A"/>
<path d="M119.64 514.439C121.828 509.321 110.402 499.516 94.1203 492.539C77.8386 485.561 62.8662 484.054 60.6785 489.172C58.4909 494.289 69.9163 504.094 86.1981 511.072C102.48 518.049 117.452 519.556 119.64 514.439Z" fill="#2F2E41"/>
<path d="M239.791 557.519C241.979 552.402 230.553 542.597 214.272 535.619C197.99 528.642 183.017 527.135 180.83 532.252C178.642 537.37 190.068 547.175 206.349 554.152C222.631 561.13 237.603 562.637 239.791 557.519Z" fill="#2F2E41"/>
<path d="M67.4438 463.322H38.2178V492.585H67.4438V463.322Z" fill="#A4142E"/>
<path d="M159.181 551.922C159.181 555.803 157.641 559.524 154.901 562.268C152.16 565.012 148.444 566.553 144.568 566.553C140.692 566.553 136.976 565.012 134.235 562.268C131.495 559.524 129.955 555.803 129.955 551.922C129.955 543.842 136.497 542.168 144.568 542.168C152.639 542.168 159.181 543.842 159.181 551.922Z" fill="white"/>
</svg>
