<svg width="652" height="474" viewBox="0 0 652 474" fill="none" xmlns="http://www.w3.org/2000/svg">
<g clip-path="url(#clip0)">
<path d="M381.813 474C518.123 474 628.625 445.346 628.625 410C628.625 374.654 518.123 346 381.813 346C245.502 346 135 374.654 135 410C135 445.346 245.502 474 381.813 474Z" fill="#F2F2F2"/>
<path d="M475.727 187.356C498.959 187.356 517.792 168.505 517.792 145.25C517.792 121.995 498.959 103.144 475.727 103.144C452.495 103.144 433.662 121.995 433.662 145.25C433.662 168.505 452.495 187.356 475.727 187.356Z" fill="#30C65A"/>
<path d="M404.227 286.453C427.459 286.453 446.292 267.601 446.292 244.347C446.292 221.092 427.459 202.24 404.227 202.24C380.995 202.24 362.162 221.092 362.162 244.347C362.162 267.601 380.995 286.453 404.227 286.453Z" fill="#30C65A"/>
<path d="M404.5 460.925C540.811 460.925 651.312 432.271 651.312 396.925C651.312 361.579 540.811 332.925 404.5 332.925C268.189 332.925 157.688 361.579 157.688 396.925C157.688 432.271 268.189 460.925 404.5 460.925Z" stroke="#3F3D56" stroke-width="2" stroke-miterlimit="10"/>
<path d="M220.803 375.935C250.799 375.935 275.116 351.595 275.116 321.57C275.116 291.545 250.799 267.204 220.803 267.204C190.807 267.204 166.491 291.545 166.491 321.57C166.491 351.595 190.807 375.935 220.803 375.935Z" fill="#2F2E41"/>
<path d="M212.553 364.237H196.053V393.828H212.553V364.237Z" fill="#2F2E41"/>
<path d="M245.553 364.237H229.053V393.828H245.553V364.237Z" fill="#2F2E41"/>
<path d="M209.803 399.333C217.397 399.333 223.553 397.023 223.553 394.172C223.553 391.322 217.397 389.011 209.803 389.011C202.209 389.011 196.053 391.322 196.053 394.172C196.053 397.023 202.209 399.333 209.803 399.333Z" fill="#2F2E41"/>
<path d="M242.803 398.645C250.397 398.645 256.553 396.334 256.553 393.484C256.553 390.633 250.397 388.323 242.803 388.323C235.209 388.323 229.053 390.633 229.053 393.484C229.053 396.334 235.209 398.645 242.803 398.645Z" fill="#2F2E41"/>
<path d="M222.178 326.387C232.43 326.387 240.741 318.068 240.741 307.806C240.741 297.545 232.43 289.226 222.178 289.226C211.926 289.226 203.616 297.545 203.616 307.806C203.616 318.068 211.926 326.387 222.178 326.387Z" fill="white"/>
<path d="M222.178 314C225.595 314 228.366 311.227 228.366 307.806C228.366 304.386 225.595 301.613 222.178 301.613C218.761 301.613 215.991 304.386 215.991 307.806C215.991 311.227 218.761 314 222.178 314Z" fill="#3F3D56"/>
<path d="M168.118 271.011C163.733 251.352 177.751 231.487 199.43 226.642C221.108 221.796 242.237 233.806 246.622 253.465C251.008 273.124 236.641 280.375 214.963 285.22C193.284 290.066 172.504 290.671 168.118 271.011Z" fill="#30C65A"/>
<path d="M271.743 310.727C285.531 304.82 295.207 296.518 293.354 292.186C291.502 287.853 278.822 289.129 265.034 295.036C251.246 300.944 241.57 309.245 243.423 313.577C245.275 317.91 257.955 316.634 271.743 310.727Z" fill="#2F2E41"/>
<path d="M169.993 347.2C183.781 341.293 193.457 332.992 191.604 328.659C189.752 324.326 177.072 325.602 163.284 331.51C149.496 337.417 139.82 345.718 141.673 350.051C143.525 354.383 156.205 353.107 169.993 347.2Z" fill="#2F2E41"/>
<path d="M252.428 337.398C252.428 342.719 238.741 353.226 223.553 353.226C208.365 353.226 193.991 343.407 193.991 338.086C193.991 332.765 208.365 333.957 223.553 333.957C238.741 333.957 252.428 332.077 252.428 337.398Z" fill="white"/>
<path d="M323.79 365.593C347.022 365.593 365.855 346.741 365.855 323.487C365.855 300.232 347.022 281.38 323.79 281.38C300.558 281.38 281.724 300.232 281.724 323.487C281.724 346.741 300.558 365.593 323.79 365.593Z" fill="#30C65A"/>
<path d="M323.752 399.634V323.255" stroke="#3F3D56" stroke-width="2" stroke-miterlimit="10"/>
<path d="M323.752 334.056C329.712 334.056 334.543 329.22 334.543 323.255C334.543 317.29 329.712 312.454 323.752 312.454C317.793 312.454 312.962 317.29 312.962 323.255C312.962 329.22 317.793 334.056 323.752 334.056Z" fill="#3F3D56"/>
<path d="M323.752 370.329C323.752 370.329 322.211 337.142 290.61 341Z" fill="#3F3D56"/>
<path d="M475.753 400.17V145.405" stroke="#3F3D56" stroke-width="2" stroke-miterlimit="10"/>
<path d="M475.753 156.085C481.713 156.085 486.544 151.249 486.544 145.284C486.544 139.319 481.713 134.483 475.753 134.483C469.794 134.483 464.963 139.319 464.963 145.284C464.963 151.249 469.794 156.085 475.753 156.085Z" fill="#3F3D56"/>
<path d="M442.611 340.409C448.571 340.409 453.402 335.573 453.402 329.608C453.402 323.643 448.571 318.807 442.611 318.807C436.652 318.807 431.821 323.643 431.821 329.608C431.821 335.573 436.652 340.409 442.611 340.409Z" fill="#3F3D56"/>
<path d="M475.754 200.457C475.754 200.457 474.212 167.27 442.611 171.127Z" fill="#3F3D56"/>
<path d="M475.754 294.538C475.754 294.538 474.212 261.351 442.611 265.208Z" fill="#3F3D56"/>
<path d="M475.753 397.201C475.753 397.201 482.69 332.694 442.611 329.608" stroke="#3F3D56" stroke-width="2" stroke-miterlimit="10"/>
<path d="M508.9 340.409C514.86 340.409 519.691 335.573 519.691 329.608C519.691 323.643 514.86 318.807 508.9 318.807C502.941 318.807 498.11 323.643 498.11 329.608C498.11 335.573 502.941 340.409 508.9 340.409Z" fill="#3F3D56"/>
<path d="M475.758 397.201C475.758 397.201 468.821 332.694 508.901 329.608" stroke="#3F3D56" stroke-width="2" stroke-miterlimit="10"/>
<path d="M509.558 239.091C515.517 239.091 520.348 234.255 520.348 228.29C520.348 222.324 515.517 217.489 509.558 217.489C503.598 217.489 498.767 222.324 498.767 228.29C498.767 234.255 503.598 239.091 509.558 239.091Z" fill="#3F3D56"/>
<path d="M476.415 292.442C476.415 292.442 469.479 231.376 509.558 228.29" stroke="#3F3D56" stroke-width="2" stroke-miterlimit="10"/>
<path d="M404.266 399.811V244.3" stroke="#3F3D56" stroke-width="2" stroke-miterlimit="10"/>
<path d="M404.265 255.101C410.225 255.101 415.056 250.265 415.056 244.3C415.056 238.334 410.225 233.499 404.265 233.499C398.306 233.499 393.475 238.334 393.475 244.3C393.475 250.265 398.306 255.101 404.265 255.101Z" fill="#3F3D56"/>
<path d="M404.265 288.288C404.265 288.288 402.724 255.101 371.123 258.958Z" fill="#3F3D56"/>
<path d="M404.265 396.842C404.265 396.842 411.202 333.023 371.123 329.937" stroke="#3F3D56" stroke-width="2" stroke-miterlimit="10"/>
<path d="M371.123 340.738C377.083 340.738 381.914 335.902 381.914 329.937C381.914 323.972 377.083 319.136 371.123 319.136C365.164 319.136 360.333 323.972 360.333 329.937C360.333 335.902 365.164 340.738 371.123 340.738Z" fill="#3F3D56"/>
<path d="M285.223 399.661H507.973" stroke="#3F3D56" stroke-width="2" stroke-miterlimit="10"/>
<path d="M589.437 289.57C601.588 289.57 611.437 279.71 611.437 267.548C611.437 255.386 601.588 245.527 589.437 245.527C577.287 245.527 567.438 255.386 567.438 267.548C567.438 279.71 577.287 289.57 589.437 289.57Z" fill="#F2F2F2"/>
<path d="M242.938 151.935C255.088 151.935 264.938 142.076 264.938 129.914C264.938 117.752 255.088 107.892 242.938 107.892C230.787 107.892 220.938 117.752 220.938 129.914C220.938 142.076 230.787 151.935 242.938 151.935Z" fill="#F2F2F2"/>
<path d="M465 70.043C477.15 70.043 487 60.1836 487 48.0215C487 35.8594 477.15 26 465 26C452.85 26 443 35.8594 443 48.0215C443 60.1836 452.85 70.043 465 70.043Z" fill="#F2F2F2"/>
</g>
<rect width="113" height="471" fill="white"/>
<defs>
<clipPath id="clip0">
<rect width="517" height="448" fill="white" transform="translate(135 26)"/>
</clipPath>
</defs>
</svg>
