<svg width="358" height="81" viewBox="0 0 358 81" fill="none" xmlns="http://www.w3.org/2000/svg">
<rect x="8.35327" y="6.45132" width="349.647" height="74.5487" fill="#30C65A"/>
<rect width="349.647" height="74.5487" fill="#070836"/>
<path d="M126.23 37.5307C123.014 36.6063 120.671 35.4735 119.199 34.1323C117.741 32.7781 117.012 31.1115 117.012 29.1323C117.012 26.8927 117.904 25.0438 119.688 23.5854C121.484 22.1141 123.815 21.3784 126.68 21.3784C128.633 21.3784 130.371 21.756 131.895 22.5112C133.431 23.2664 134.616 24.3081 135.449 25.6362C136.296 26.9643 136.719 28.4162 136.719 29.9917H132.949C132.949 28.2729 132.402 26.9253 131.309 25.9487C130.215 24.9591 128.672 24.4643 126.68 24.4643C124.831 24.4643 123.385 24.8745 122.344 25.6948C121.315 26.5021 120.801 27.6284 120.801 29.0737C120.801 30.2326 121.289 31.2156 122.266 32.0229C123.255 32.8172 124.928 33.5464 127.285 34.2104C129.655 34.8745 131.504 35.6102 132.832 36.4175C134.173 37.2117 135.163 38.1427 135.801 39.2104C136.452 40.2781 136.777 41.5347 136.777 42.98C136.777 45.2847 135.879 47.1336 134.082 48.5268C132.285 49.907 129.883 50.5972 126.875 50.5972C124.922 50.5972 123.099 50.2261 121.406 49.4839C119.714 48.7287 118.405 47.7 117.48 46.3979C116.569 45.0959 116.113 43.618 116.113 41.9643H119.883C119.883 43.6831 120.514 45.0438 121.777 46.0464C123.053 47.036 124.753 47.5307 126.875 47.5307C128.854 47.5307 130.371 47.1271 131.426 46.3198C132.48 45.5125 133.008 44.4123 133.008 43.019C133.008 41.6258 132.52 40.5516 131.543 39.7964C130.566 39.0281 128.796 38.2729 126.23 37.5307ZM144.961 50.2065H141.348V29.0737H144.961V50.2065ZM141.055 23.4682C141.055 22.8823 141.23 22.3875 141.582 21.9839C141.947 21.5802 142.48 21.3784 143.184 21.3784C143.887 21.3784 144.421 21.5802 144.785 21.9839C145.15 22.3875 145.332 22.8823 145.332 23.4682C145.332 24.0542 145.15 24.5425 144.785 24.9331C144.421 25.3237 143.887 25.519 143.184 25.519C142.48 25.519 141.947 25.3237 141.582 24.9331C141.23 24.5425 141.055 24.0542 141.055 23.4682ZM149.902 39.4643C149.902 36.1701 150.664 33.5529 152.188 31.6128C153.711 29.6597 155.729 28.6831 158.242 28.6831C160.82 28.6831 162.832 29.5945 164.277 31.4175L164.453 29.0737H167.754V49.6987C167.754 52.4331 166.94 54.588 165.312 56.1636C163.698 57.7391 161.523 58.5268 158.789 58.5268C157.266 58.5268 155.775 58.2013 154.316 57.5503C152.858 56.8992 151.745 56.0073 150.977 54.8745L152.852 52.7065C154.401 54.6206 156.296 55.5776 158.535 55.5776C160.293 55.5776 161.66 55.0828 162.637 54.0932C163.626 53.1037 164.121 51.7104 164.121 49.9136V48.0972C162.676 49.7638 160.703 50.5972 158.203 50.5972C155.729 50.5972 153.724 49.6011 152.188 47.6089C150.664 45.6167 149.902 42.9018 149.902 39.4643ZM153.535 39.8745C153.535 42.2573 154.023 44.1323 155 45.4995C155.977 46.8537 157.344 47.5307 159.102 47.5307C161.38 47.5307 163.053 46.4956 164.121 44.4253V34.7768C163.014 32.7586 161.354 31.7495 159.141 31.7495C157.383 31.7495 156.009 32.4331 155.02 33.8003C154.03 35.1675 153.535 37.1922 153.535 39.8745ZM176.641 29.0737L176.758 31.73C178.372 29.6987 180.482 28.6831 183.086 28.6831C187.552 28.6831 189.805 31.2026 189.844 36.2417V50.2065H186.23V36.2222C186.217 34.6987 185.866 33.5724 185.176 32.8432C184.499 32.1141 183.438 31.7495 181.992 31.7495C180.82 31.7495 179.792 32.062 178.906 32.687C178.021 33.312 177.331 34.1323 176.836 35.1479V50.2065H173.223V29.0737H176.641ZM209.805 50.2065H206.055V21.769H209.805V50.2065ZM219.531 29.0737L219.648 31.73C221.263 29.6987 223.372 28.6831 225.977 28.6831C230.443 28.6831 232.695 31.2026 232.734 36.2417V50.2065H229.121V36.2222C229.108 34.6987 228.757 33.5724 228.066 32.8432C227.389 32.1141 226.328 31.7495 224.883 31.7495C223.711 31.7495 222.682 32.062 221.797 32.687C220.911 33.312 220.221 34.1323 219.727 35.1479V50.2065H216.113V29.0737H219.531Z" fill="white"/>
</svg>
