<svg width="169" height="80" viewBox="0 0 169 80" fill="none" xmlns="http://www.w3.org/2000/svg">
<path d="M167.755 56.0168C167.91 67.8411 130.546 77.8366 84.2995 78.3424C38.053 78.8482 0.436845 69.6728 0.28142 57.8485C0.125996 46.0242 37.4902 36.0287 83.7367 35.5229C129.983 35.0171 167.599 44.1925 167.755 56.0168ZM17.0288 57.6653C17.1531 67.1248 47.2461 74.4651 84.2433 74.0605C121.24 73.6559 151.132 65.6594 151.007 56.2C150.883 46.7406 120.79 39.4002 83.793 39.8048C46.7958 40.2095 16.9044 48.2059 17.0288 57.6653Z" fill="#35CAD3"/>
<path d="M167.813 52.7677C167.969 64.592 130.605 74.5875 84.3581 75.0933C38.1116 75.5991 0.495438 66.4237 0.340014 54.5994C0.18459 42.7751 37.5488 32.7795 83.7953 32.2737C130.042 31.768 167.658 40.9434 167.813 52.7677ZM17.0874 54.4162C17.2117 63.8756 47.3047 71.216 84.3019 70.8114C121.299 70.4067 151.19 62.4103 151.066 52.9509C150.942 43.4914 120.849 36.1511 83.8516 36.5557C46.8544 36.9603 16.963 44.9568 17.0874 54.4162Z" fill="#30C65A"/>
<path d="M11.9146 37.1489V54.6233H6V9.98681H22.5423C27.4505 9.98681 31.2909 11.2335 34.0633 13.727C36.8563 16.2204 38.2528 19.5211 38.2528 23.6292C38.2528 27.962 36.8871 31.3036 34.1557 33.654C31.4449 35.9839 27.5532 37.1489 22.4807 37.1489H11.9146ZM11.9146 32.3357H22.5423C25.7049 32.3357 28.1282 31.6 29.8122 30.1284C31.4962 28.6365 32.3382 26.4905 32.3382 23.6905C32.3382 21.0335 31.4962 18.908 29.8122 17.3138C28.1282 15.7197 25.8179 14.8919 22.8811 14.8306H11.9146V32.3357Z" fill="white"/>
<path d="M61.0177 26.5416C60.1551 26.3985 59.2207 26.327 58.2144 26.327C54.4767 26.327 51.9405 27.9109 50.6056 31.0788V54.6233H44.9067V21.4525H50.4515L50.544 25.2846C52.4128 22.3211 55.062 20.8394 58.4916 20.8394C59.6006 20.8394 60.4426 20.9824 61.0177 21.2686V26.5416Z" fill="white"/>
<path d="M64.1598 37.7314C64.1598 34.4817 64.7964 31.5591 66.0697 28.9635C67.3635 26.3678 69.1502 24.3649 71.4297 22.9547C73.7298 21.5445 76.3483 20.8394 79.285 20.8394C83.8236 20.8394 87.4894 22.4029 90.2824 25.5299C93.0959 28.6569 94.5026 32.816 94.5026 38.0073V38.4058C94.5026 41.635 93.8763 44.5372 92.6235 47.1124C91.3913 49.6671 89.6149 51.6598 87.2943 53.0905C84.9942 54.5212 82.345 55.2365 79.3466 55.2365C74.8285 55.2365 71.1628 53.673 68.3492 50.546C65.5563 47.419 64.1598 43.2803 64.1598 38.1299V37.7314ZM69.8895 38.4058C69.8895 42.0847 70.7418 45.0379 72.4463 47.2657C74.1714 49.4934 76.4715 50.6073 79.3466 50.6073C82.2423 50.6073 84.5424 49.4832 86.2469 47.235C87.9515 44.9664 88.8037 41.7985 88.8037 37.7314C88.8037 34.0934 87.9309 31.1503 86.1853 28.9022C84.4602 26.6335 82.1601 25.4992 79.285 25.4992C76.4715 25.4992 74.2022 26.6131 72.4771 28.8408C70.752 31.0686 69.8895 34.2569 69.8895 38.4058Z" fill="white"/>
<path d="M123.648 17.6333C123.648 20.1574 123.068 22.1909 121.907 23.734C120.747 25.2771 119.176 26.0486 117.194 26.0486C115.171 26.0486 113.58 25.4099 112.419 24.1325V32.1187H109.57V9.15662H112.173L112.312 10.996C113.472 9.56538 115.084 8.85005 117.148 8.85005C119.15 8.85005 120.732 9.60115 121.892 11.1033C123.063 12.6055 123.648 14.6953 123.648 17.3727V17.6333ZM120.798 17.3114C120.798 15.4413 120.398 13.9647 119.597 12.8814C118.796 11.7982 117.697 11.2566 116.301 11.2566C114.576 11.2566 113.282 12.0179 112.419 13.5406V21.4654C113.272 22.9778 114.576 23.734 116.332 23.734C117.697 23.734 118.781 23.1975 119.582 22.1245C120.393 21.0413 120.798 19.4369 120.798 17.3114Z" fill="white"/>
<path d="M134.199 26.0486C131.939 26.0486 130.101 25.3128 128.684 23.8413C127.267 22.3596 126.559 20.3822 126.559 17.9092V17.388C126.559 15.7428 126.872 14.2763 127.498 12.9887C128.135 11.6909 129.018 10.6793 130.148 9.9537C131.287 9.21794 132.52 8.85005 133.844 8.85005C136.011 8.85005 137.695 9.56027 138.896 10.9807C140.098 12.4011 140.698 14.4347 140.698 17.0814V18.2617H129.408C129.449 19.8968 129.927 21.2201 130.841 22.2318C131.765 23.2333 132.936 23.734 134.353 23.734C135.359 23.734 136.211 23.5296 136.909 23.1209C137.608 22.7121 138.219 22.1705 138.742 21.496L140.483 22.845C139.086 24.9807 136.992 26.0486 134.199 26.0486ZM133.844 11.18C132.694 11.18 131.729 11.599 130.949 12.4369C130.168 13.2647 129.686 14.4296 129.501 15.9318H137.849V15.7172C137.767 14.2763 137.377 13.1625 136.678 12.3756C135.98 11.5785 135.035 11.18 133.844 11.18Z" fill="white"/>
<path d="M147.106 25.742H144.256V2.19749H147.106V25.742Z" fill="white"/>
<path d="M112.25 38.0379L112.327 39.8773C113.549 38.4467 115.197 37.7314 117.271 37.7314C119.602 37.7314 121.189 38.6204 122.031 40.3985C122.585 39.6014 123.304 38.9576 124.187 38.4671C125.08 37.9766 126.133 37.7314 127.344 37.7314C131 37.7314 132.859 39.6576 132.92 43.5102V54.6233H130.071V43.6788C130.071 42.4934 129.799 41.6095 129.254 41.027C128.71 40.4343 127.796 40.1379 126.513 40.1379C125.455 40.1379 124.577 40.4547 123.879 41.0883C123.181 41.7117 122.775 42.5547 122.662 43.6175V54.6233H119.797V43.7555C119.797 41.3438 118.611 40.1379 116.239 40.1379C114.37 40.1379 113.092 40.9299 112.404 42.5138V54.6233H109.555V38.0379H112.25Z" fill="white"/>
<path d="M151.311 46.5146C151.311 49.0387 150.731 51.0723 149.57 52.6153C148.41 54.1584 146.839 54.9299 144.857 54.9299C142.834 54.9299 141.243 54.2912 140.082 53.0139V61H137.233V38.0379H139.836L139.974 39.8773C141.135 38.4467 142.747 37.7314 144.811 37.7314C146.813 37.7314 148.394 38.4825 149.555 39.9846C150.725 41.4868 151.311 43.5766 151.311 46.254V46.5146ZM148.461 46.1927C148.461 44.3226 148.061 42.846 147.26 41.7628C146.459 40.6795 145.36 40.1379 143.964 40.1379C142.239 40.1379 140.945 40.8992 140.082 42.4219V50.3467C140.935 51.8591 142.239 52.6153 143.995 52.6153C145.36 52.6153 146.443 52.0788 147.244 51.0058C148.056 49.9226 148.461 48.3182 148.461 46.1927Z" fill="white"/>
<path d="M158.812 34.0219V38.0379H161.923V40.2299H158.812V50.5153C158.812 51.1796 158.95 51.6803 159.228 52.0175C159.505 52.3445 159.977 52.508 160.645 52.508C160.973 52.508 161.425 52.4467 162 52.3241V54.6233C161.25 54.8277 160.521 54.9299 159.813 54.9299C158.54 54.9299 157.579 54.5467 156.933 53.7803C156.286 53.0139 155.962 51.9255 155.962 50.5153V40.2299H152.928V38.0379H155.962V34.0219H158.812Z" fill="white"/>
<path d="M99.843 0H102.367V54.6233H99.843V0Z" fill="white"/>
<path d="M11.9146 37.1489V54.6233H6V9.98681H22.5423C27.4505 9.98681 31.2909 11.2335 34.0633 13.727C36.8563 16.2204 38.2528 19.5211 38.2528 23.6292C38.2528 27.962 36.8871 31.3036 34.1557 33.654C31.4449 35.9839 27.5532 37.1489 22.4807 37.1489H11.9146ZM11.9146 32.3357H22.5423C25.7049 32.3357 28.1282 31.6 29.8122 30.1284C31.4962 28.6365 32.3382 26.4905 32.3382 23.6905C32.3382 21.0335 31.4962 18.908 29.8122 17.3138C28.1282 15.7197 25.8179 14.8919 22.8811 14.8306H11.9146V32.3357Z" fill="white"/>
<path d="M61.0177 26.5416C60.1551 26.3985 59.2207 26.327 58.2144 26.327C54.4767 26.327 51.9405 27.9109 50.6056 31.0788V54.6233H44.9067V21.4525H50.4515L50.544 25.2846C52.4128 22.3211 55.062 20.8394 58.4916 20.8394C59.6006 20.8394 60.4426 20.9824 61.0177 21.2686V26.5416Z" fill="white"/>
</svg>
