<svg width="435" height="59" viewBox="0 0 435 59" fill="none" xmlns="http://www.w3.org/2000/svg">
<rect x="10" width="113" height="59" fill="#070836"/>
<path d="M26.8506 34.4756V47H19.5264V11.4531H33.3936C36.0628 11.4531 38.4066 11.9414 40.4248 12.918C42.4593 13.8945 44.0218 15.2861 45.1123 17.0928C46.2028 18.8831 46.748 20.9258 46.748 23.2207C46.748 26.7038 45.5518 29.4544 43.1592 31.4727C40.7829 33.4746 37.487 34.4756 33.2715 34.4756H26.8506ZM26.8506 28.543H33.3936C35.3304 28.543 36.8034 28.0872 37.8125 27.1758C38.8379 26.2643 39.3506 24.9622 39.3506 23.2695C39.3506 21.528 38.8379 20.1201 37.8125 19.0459C36.7871 17.9717 35.3711 17.4183 33.5645 17.3857H26.8506V28.543ZM58.7842 47H51.7041V9.5H58.7842V47ZM79.9268 47C79.6012 46.3652 79.3652 45.5758 79.2188 44.6318C77.5098 46.5361 75.2881 47.4883 72.5537 47.4883C69.9658 47.4883 67.8174 46.7396 66.1084 45.2422C64.4157 43.7448 63.5693 41.8568 63.5693 39.5781C63.5693 36.7786 64.6029 34.6302 66.6699 33.1328C68.7533 31.6354 71.7562 30.8786 75.6787 30.8623H78.9258V29.3486C78.9258 28.1279 78.6084 27.1514 77.9736 26.4189C77.3551 25.6865 76.3704 25.3203 75.0195 25.3203C73.8314 25.3203 72.8955 25.6051 72.2119 26.1748C71.5446 26.7445 71.2109 27.5257 71.2109 28.5186H64.1553C64.1553 26.9886 64.6273 25.5726 65.5713 24.2705C66.5153 22.9684 67.8499 21.9512 69.5752 21.2188C71.3005 20.4701 73.2373 20.0957 75.3857 20.0957C78.641 20.0957 81.2207 20.9176 83.125 22.5615C85.0456 24.1891 86.0059 26.484 86.0059 29.4463V40.8965C86.0221 43.403 86.3721 45.2992 87.0557 46.585V47H79.9268ZM74.0918 42.0928C75.1335 42.0928 76.0938 41.8649 76.9727 41.4092C77.8516 40.9372 78.5026 40.3105 78.9258 39.5293V34.9883H76.2891C72.7572 34.9883 70.8773 36.209 70.6494 38.6504L70.625 39.0654C70.625 39.9443 70.9342 40.6686 71.5527 41.2383C72.1712 41.8079 73.0176 42.0928 74.0918 42.0928ZM97.9199 20.584L98.1396 23.6357C100.028 21.2757 102.559 20.0957 105.732 20.0957C108.532 20.0957 110.615 20.9176 111.982 22.5615C113.35 24.2054 114.049 26.6631 114.082 29.9346V47H107.026V30.1055C107.026 28.6081 106.701 27.5257 106.05 26.8584C105.399 26.1748 104.316 25.833 102.803 25.833C100.817 25.833 99.3278 26.6794 98.335 28.3721V47H91.2793V20.584H97.9199Z" fill="white"/>
<path d="M141.768 37.0146L146.65 20.584H154.219L143.599 51.1016L143.013 52.4932C141.434 55.9437 138.83 57.6689 135.2 57.6689C134.175 57.6689 133.133 57.5143 132.075 57.2051V51.8584L133.149 51.8828C134.484 51.8828 135.477 51.6794 136.128 51.2725C136.795 50.8656 137.316 50.1901 137.69 49.2461L138.521 47.0732L129.268 20.584H136.86L141.768 37.0146ZM155.513 33.5479C155.513 30.9274 156.017 28.5918 157.026 26.541C158.035 24.4902 159.484 22.9033 161.372 21.7803C163.276 20.6572 165.482 20.0957 167.988 20.0957C171.553 20.0957 174.458 21.1862 176.704 23.3672C178.966 25.5482 180.228 28.5104 180.488 32.2539L180.537 34.0605C180.537 38.1133 179.406 41.3685 177.144 43.8262C174.881 46.2676 171.846 47.4883 168.037 47.4883C164.229 47.4883 161.185 46.2676 158.906 43.8262C156.644 41.3848 155.513 38.0645 155.513 33.8652V33.5479ZM162.568 34.0605C162.568 36.5671 163.04 38.4876 163.984 39.8223C164.928 41.1406 166.279 41.7998 168.037 41.7998C169.746 41.7998 171.081 41.1488 172.041 39.8467C173.001 38.5283 173.481 36.4287 173.481 33.5479C173.481 31.0902 173.001 29.1859 172.041 27.835C171.081 26.484 169.73 25.8086 167.988 25.8086C166.263 25.8086 164.928 26.484 163.984 27.835C163.04 29.1696 162.568 31.2448 162.568 34.0605ZM200.703 44.3145C198.962 46.4303 196.553 47.4883 193.477 47.4883C190.645 47.4883 188.48 46.6745 186.982 45.0469C185.501 43.4193 184.744 41.0348 184.712 37.8936V20.584H191.768V37.6494C191.768 40.4001 193.021 41.7754 195.527 41.7754C197.92 41.7754 199.564 40.9453 200.459 39.2852V20.584H207.539V47H200.898L200.703 44.3145ZM227.705 27.2002C226.745 27.07 225.898 27.0049 225.166 27.0049C222.497 27.0049 220.747 27.9082 219.917 29.7148V47H212.861V20.584H219.526L219.722 23.7334C221.138 21.3083 223.099 20.0957 225.605 20.0957C226.387 20.0957 227.119 20.2015 227.803 20.4131L227.705 27.2002ZM251.045 20.584V48.4404C251.045 51.3538 250.272 53.6162 248.726 55.2275C247.179 56.8551 244.95 57.6689 242.036 57.6689C240.815 57.6689 239.652 57.5306 238.545 57.2539V51.6631C239.391 51.8096 240.132 51.8828 240.767 51.8828C242.899 51.8828 243.965 50.7516 243.965 48.4893V20.584H251.045ZM243.403 13.748C243.403 12.6901 243.753 11.8193 244.453 11.1357C245.169 10.4521 246.138 10.1104 247.358 10.1104C248.579 10.1104 249.539 10.4521 250.239 11.1357C250.955 11.8193 251.313 12.6901 251.313 13.748C251.313 14.8223 250.947 15.7012 250.215 16.3848C249.499 17.0684 248.547 17.4102 247.358 17.4102C246.17 17.4102 245.21 17.0684 244.478 16.3848C243.761 15.7012 243.403 14.8223 243.403 13.748ZM255.464 33.5479C255.464 30.9274 255.968 28.5918 256.978 26.541C257.987 24.4902 259.435 22.9033 261.323 21.7803C263.228 20.6572 265.433 20.0957 267.939 20.0957C271.504 20.0957 274.409 21.1862 276.655 23.3672C278.918 25.5482 280.179 28.5104 280.439 32.2539L280.488 34.0605C280.488 38.1133 279.357 41.3685 277.095 43.8262C274.832 46.2676 271.797 47.4883 267.988 47.4883C264.18 47.4883 261.136 46.2676 258.857 43.8262C256.595 41.3848 255.464 38.0645 255.464 33.8652V33.5479ZM262.52 34.0605C262.52 36.5671 262.992 38.4876 263.936 39.8223C264.88 41.1406 266.23 41.7998 267.988 41.7998C269.697 41.7998 271.032 41.1488 271.992 39.8467C272.952 38.5283 273.433 36.4287 273.433 33.5479C273.433 31.0902 272.952 29.1859 271.992 27.835C271.032 26.484 269.681 25.8086 267.939 25.8086C266.214 25.8086 264.88 26.484 263.936 27.835C262.992 29.1696 262.52 31.2448 262.52 34.0605ZM300.654 44.3145C298.913 46.4303 296.504 47.4883 293.428 47.4883C290.596 47.4883 288.431 46.6745 286.934 45.0469C285.452 43.4193 284.696 41.0348 284.663 37.8936V20.584H291.719V37.6494C291.719 40.4001 292.972 41.7754 295.479 41.7754C297.871 41.7754 299.515 40.9453 300.41 39.2852V20.584H307.49V47H300.85L300.654 44.3145ZM327.656 27.2002C326.696 27.07 325.85 27.0049 325.117 27.0049C322.448 27.0049 320.698 27.9082 319.868 29.7148V47H312.812V20.584H319.478L319.673 23.7334C321.089 21.3083 323.05 20.0957 325.557 20.0957C326.338 20.0957 327.07 20.2015 327.754 20.4131L327.656 27.2002ZM337.568 20.584L337.788 23.6357C339.676 21.2757 342.207 20.0957 345.381 20.0957C348.18 20.0957 350.264 20.9176 351.631 22.5615C352.998 24.2054 353.698 26.6631 353.73 29.9346V47H346.675V30.1055C346.675 28.6081 346.349 27.5257 345.698 26.8584C345.047 26.1748 343.965 25.833 342.451 25.833C340.465 25.833 338.976 26.6794 337.983 28.3721V47H330.928V20.584H337.568ZM371.26 47.4883C367.386 47.4883 364.229 46.3001 361.787 43.9238C359.362 41.5475 358.149 38.3818 358.149 34.4268V33.7432C358.149 31.0902 358.662 28.722 359.688 26.6387C360.713 24.5391 362.161 22.9277 364.033 21.8047C365.921 20.6654 368.07 20.0957 370.479 20.0957C374.092 20.0957 376.932 21.235 378.999 23.5137C381.082 25.7923 382.124 29.0231 382.124 33.2061V36.0869H365.303C365.531 37.8122 366.214 39.1956 367.354 40.2373C368.509 41.279 369.966 41.7998 371.724 41.7998C374.442 41.7998 376.566 40.8151 378.096 38.8457L381.562 42.7275C380.505 44.2249 379.072 45.3968 377.266 46.2432C375.459 47.0732 373.457 47.4883 371.26 47.4883ZM370.454 25.8086C369.054 25.8086 367.915 26.2806 367.036 27.2246C366.174 28.1686 365.62 29.5195 365.376 31.2773H375.19V30.7158C375.158 29.1533 374.735 27.9489 373.921 27.1025C373.107 26.2399 371.951 25.8086 370.454 25.8086ZM395.674 37.0146L400.557 20.584H408.125L397.505 51.1016L396.919 52.4932C395.34 55.9437 392.736 57.6689 389.106 57.6689C388.081 57.6689 387.039 57.5143 385.981 57.2051V51.8584L387.056 51.8828C388.39 51.8828 389.383 51.6794 390.034 51.2725C390.701 50.8656 391.222 50.1901 391.597 49.2461L392.427 47.0732L383.174 20.584H390.767L395.674 37.0146ZM407.173 43.5332C407.173 42.4102 407.547 41.4987 408.296 40.7988C409.061 40.099 410.013 39.749 411.152 39.749C412.308 39.749 413.26 40.099 414.009 40.7988C414.774 41.4987 415.156 42.4102 415.156 43.5332C415.156 44.64 414.782 45.5433 414.033 46.2432C413.285 46.9268 412.324 47.2686 411.152 47.2686C409.997 47.2686 409.045 46.9268 408.296 46.2432C407.547 45.5433 407.173 44.64 407.173 43.5332Z" fill="#070836"/>
</svg>
