<svg width="794" height="794" viewBox="0 0 794 794" fill="none" xmlns="http://www.w3.org/2000/svg">
<circle cx="639.5" cy="639.5" r="154.5" fill="#30C65A"/>
<circle cx="383" cy="383" r="383" fill="#070836"/>
<circle cx="640" cy="640" r="126" fill="#35A4D3"/>
<path d="M469.791 254.032C476.782 235.745 477.795 219.142 472.053 216.948C466.311 214.754 455.99 227.799 448.999 246.086C442.008 264.373 440.996 280.976 446.738 283.17C452.479 285.365 462.801 272.319 469.791 254.032Z" fill="#2F2E41"/>
<path d="M463.847 314.951C470.12 276.302 443.869 239.887 405.215 233.615C366.561 227.344 330.14 253.59 323.868 292.239C317.595 330.887 343.845 367.303 382.5 373.575C421.154 379.846 457.574 353.6 463.847 314.951Z" fill="#2F2E41"/>
<path d="M383 359H362V397H383V359Z" fill="#2F2E41"/>
<path d="M426 359H405V397H426V359Z" fill="#2F2E41"/>
<path d="M379.5 405C389.165 405 397 402.09 397 398.5C397 394.91 389.165 392 379.5 392C369.835 392 362 394.91 362 398.5C362 402.09 369.835 405 379.5 405Z" fill="#2F2E41"/>
<path d="M422.5 404C432.165 404 440 401.09 440 397.5C440 393.91 432.165 391 422.5 391C412.835 391 405 393.91 405 397.5C405 401.09 412.835 404 422.5 404Z" fill="#2F2E41"/>
<path d="M396.364 309.866C409.742 309.473 420.268 298.311 419.875 284.935C419.482 271.559 408.318 261.034 394.94 261.427C381.562 261.82 371.036 272.982 371.429 286.358C371.822 299.735 382.986 310.259 396.364 309.866Z" fill="white"/>
<path d="M396 293C400.418 293 404 289.418 404 285C404 280.582 400.418 277 396 277C391.582 277 388 280.582 388 285C388 289.418 391.582 293 396 293Z" fill="#3F3D56"/>
<path d="M325.043 237.626C319.348 211.831 337.551 185.766 365.699 179.409C393.847 173.051 421.282 188.809 426.976 214.604C432.67 240.399 414.016 249.912 385.867 256.27C357.719 262.627 330.737 263.421 325.043 237.626Z" fill="#30C65A"/>
<path d="M346.027 285.89C348.661 280.337 336.455 269.034 318.764 260.645C301.073 252.256 284.596 249.956 281.962 255.509C279.328 261.062 291.534 272.365 309.225 280.754C326.916 289.143 343.393 291.443 346.027 285.89Z" fill="#2F2E41"/>
<path d="M359 328.826C359 335.944 376.842 350 396.639 350C416.437 350 435 329.96 435 322.841C435 315.723 416.437 324.222 396.639 324.222C376.842 324.222 359 321.707 359 328.826Z" fill="white"/>
<path d="M395 573C433.108 573 464 542.108 464 504C464 465.892 433.108 435 395 435C356.892 435 326 465.892 326 504C326 542.108 356.892 573 395 573Z" fill="#2F2E41"/>
<path d="M421.169 549.783L411.759 568.569L445.423 585.425L454.832 566.639L421.169 549.783Z" fill="#2F2E41"/>
<path d="M459.219 579.362C467.293 574.039 472.22 567.27 470.223 564.243C468.227 561.216 460.063 563.077 451.989 568.399C443.915 573.722 438.988 580.491 440.985 583.519C442.981 586.546 451.145 584.685 459.219 579.362Z" fill="#2F2E41"/>
<path d="M390.5 511C403.479 511 414 500.479 414 487.5C414 474.521 403.479 464 390.5 464C377.521 464 367 474.521 367 487.5C367 500.479 377.521 511 390.5 511Z" fill="white"/>
<path d="M376.14 488.14C384.703 481.618 394.382 491.297 387.86 499.86C379.297 506.382 369.618 496.703 376.14 488.14Z" fill="#3F3D56"/>
<path d="M448.965 428.811C450.001 403.563 428.024 382.179 399.878 381.047C371.732 379.915 348.075 399.464 347.039 424.712C346.003 449.959 365.568 455.695 393.715 456.828C421.861 457.96 447.929 454.058 448.965 428.811Z" fill="#CCCCCC"/>
<path d="M489.301 540.559C493.85 536.654 487.453 521.741 475.012 507.251C462.57 492.761 448.796 484.18 444.246 488.085C439.697 491.99 446.094 506.903 458.536 521.393C470.977 535.883 484.751 544.464 489.301 540.559Z" fill="#2F2E41"/>
<path d="M331.39 521.393C343.832 506.903 350.229 491.99 345.679 488.085C341.13 484.18 327.356 492.761 314.914 507.251C302.473 521.742 296.075 536.654 300.625 540.559C305.175 544.465 318.949 535.884 331.39 521.393Z" fill="#2F2E41"/>
<path d="M413.739 531.968C414.117 533.943 414.084 535.97 413.642 537.933C413.199 539.896 412.355 541.757 411.159 543.409C409.963 545.06 408.437 546.471 406.67 547.559C404.902 548.648 402.927 549.393 400.857 549.753C398.787 550.113 396.664 550.079 394.607 549.655C392.551 549.231 390.603 548.424 388.873 547.281C387.144 546.138 385.668 544.68 384.529 542.992C383.39 541.304 382.61 539.418 382.235 537.442L382.23 537.412C380.655 529.107 387.382 526.169 396.083 524.665C404.784 523.162 412.164 523.663 413.739 531.968Z" fill="white"/>
<path d="M469.791 254.032C476.782 235.745 477.795 219.142 472.053 216.948C466.311 214.754 455.99 227.799 448.999 246.086C442.008 264.373 440.996 280.976 446.738 283.17C452.479 285.365 462.801 272.319 469.791 254.032Z" fill="#2F2E41"/>
<path d="M463.847 314.951C470.12 276.302 443.869 239.887 405.215 233.615C366.561 227.344 330.14 253.59 323.868 292.239C317.595 330.887 343.845 367.303 382.5 373.575C421.154 379.846 457.574 353.6 463.847 314.951Z" fill="#2F2E41"/>
<path d="M383 359H362V397H383V359Z" fill="#2F2E41"/>
<path d="M426 359H405V397H426V359Z" fill="#2F2E41"/>
<path d="M379.5 405C389.165 405 397 402.09 397 398.5C397 394.91 389.165 392 379.5 392C369.835 392 362 394.91 362 398.5C362 402.09 369.835 405 379.5 405Z" fill="#2F2E41"/>
<path d="M422.5 404C432.165 404 440 401.09 440 397.5C440 393.91 432.165 391 422.5 391C412.835 391 405 393.91 405 397.5C405 401.09 412.835 404 422.5 404Z" fill="#2F2E41"/>
<path d="M396.364 309.866C409.742 309.473 420.268 298.311 419.875 284.935C419.482 271.559 408.318 261.034 394.94 261.427C381.562 261.82 371.036 272.982 371.429 286.358C371.822 299.735 382.986 310.259 396.364 309.866Z" fill="white"/>
<path d="M396 293C400.418 293 404 289.418 404 285C404 280.582 400.418 277 396 277C391.582 277 388 280.582 388 285C388 289.418 391.582 293 396 293Z" fill="#3F3D56"/>
<path d="M325.043 237.626C319.348 211.831 337.551 185.766 365.699 179.409C393.847 173.051 421.282 188.809 426.976 214.604C432.67 240.399 414.016 249.912 385.867 256.27C357.719 262.627 330.737 263.421 325.043 237.626Z" fill="#30C65A"/>
<path d="M346.027 285.89C348.661 280.337 336.455 269.034 318.764 260.645C301.073 252.256 284.596 249.956 281.962 255.509C279.328 261.062 291.534 272.365 309.225 280.754C326.916 289.143 343.393 291.443 346.027 285.89Z" fill="#2F2E41"/>
<path d="M359 328.826C359 335.944 376.842 350 396.639 350C416.437 350 435 329.96 435 322.841C435 315.723 416.437 324.222 396.639 324.222C376.842 324.222 359 321.707 359 328.826Z" fill="white"/>
<path d="M530.451 288.652L479.152 298.891C478.321 299.06 477.463 299.032 476.644 298.811C475.826 298.589 475.067 298.18 474.426 297.613C473.773 297.04 473.255 296.322 472.914 295.513C472.573 294.704 472.417 293.827 472.457 292.947C473.333 271.438 469.244 250.019 460.522 230.426C460.16 229.626 459.983 228.753 460.001 227.872C460.02 226.992 460.235 226.127 460.63 225.345C461.015 224.573 461.568 223.902 462.245 223.382C462.922 222.862 463.707 222.507 464.538 222.344L515.838 212.105C517.15 211.846 518.508 212.071 519.672 212.74C520.836 213.41 521.731 214.48 522.195 215.76C529.784 237.315 534.101 259.93 534.997 282.82C535.038 284.185 534.603 285.521 533.77 286.589C532.938 287.657 531.762 288.388 530.451 288.652Z" fill="#A4142E"/>
<path d="M301.391 335.771L249.407 345.892C248.565 346.059 247.696 346.032 246.866 345.813C246.037 345.594 245.268 345.189 244.619 344.629C243.956 344.062 243.432 343.352 243.086 342.553C242.741 341.754 242.582 340.886 242.624 340.017C243.51 318.754 239.367 297.582 230.529 278.214C230.163 277.423 229.982 276.56 230.001 275.69C230.02 274.82 230.238 273.965 230.638 273.191C231.029 272.429 231.588 271.765 232.275 271.251C232.961 270.737 233.756 270.386 234.599 270.225L286.583 260.103C287.912 259.847 289.288 260.07 290.468 260.732C291.648 261.394 292.554 262.451 293.025 263.717C300.714 285.024 305.089 307.379 305.997 330.006C306.038 331.356 305.598 332.676 304.754 333.731C303.91 334.787 302.719 335.51 301.391 335.771Z" fill="#CCCCCC"/>
<path d="M371.391 575.771L319.407 585.892C318.565 586.059 317.696 586.032 316.866 585.813C316.037 585.594 315.268 585.189 314.619 584.629C313.956 584.062 313.432 583.352 313.086 582.553C312.741 581.754 312.582 580.886 312.624 580.017C313.51 558.754 309.367 537.582 300.528 518.214C300.163 517.423 299.982 516.56 300.001 515.69C300.02 514.82 300.238 513.965 300.638 513.191C301.029 512.429 301.588 511.765 302.275 511.251C302.961 510.737 303.756 510.386 304.599 510.225L356.583 500.103C357.912 499.847 359.288 500.07 360.468 500.732C361.648 501.394 362.554 502.451 363.025 503.717C370.714 525.024 375.089 547.379 375.997 570.006C376.038 571.356 375.598 572.676 374.754 573.731C373.91 574.787 372.719 575.51 371.391 575.771Z" fill="#30C65A"/>
</svg>
