<svg width="791" height="65" viewBox="0 0 791 65" fill="none" xmlns="http://www.w3.org/2000/svg">
<rect x="301" width="158" height="59" fill="#070836"/>
<path d="M24.5605 32.4736H10.498V47H3.17383V11.4531H26.3184V17.3857H10.498V26.5654H24.5605V32.4736ZM28.4668 33.5479C28.4668 30.9274 28.9714 28.5918 29.9805 26.541C30.9896 24.4902 32.4382 22.9033 34.3262 21.7803C36.2305 20.6572 38.4359 20.0957 40.9424 20.0957C44.5068 20.0957 47.4121 21.1862 49.6582 23.3672C51.9206 25.5482 53.182 28.5104 53.4424 32.2539L53.4912 34.0605C53.4912 38.1133 52.36 41.3685 50.0977 43.8262C47.8353 46.2676 44.7998 47.4883 40.9912 47.4883C37.1826 47.4883 34.139 46.2676 31.8604 43.8262C29.598 41.3848 28.4668 38.0645 28.4668 33.8652V33.5479ZM35.5225 34.0605C35.5225 36.5671 35.9945 38.4876 36.9385 39.8223C37.8825 41.1406 39.2334 41.7998 40.9912 41.7998C42.7002 41.7998 44.0348 41.1488 44.9951 39.8467C45.9554 38.5283 46.4355 36.4287 46.4355 33.5479C46.4355 31.0902 45.9554 29.1859 44.9951 27.835C44.0348 26.484 42.6839 25.8086 40.9424 25.8086C39.2171 25.8086 37.8825 26.484 36.9385 27.835C35.9945 29.1696 35.5225 31.2448 35.5225 34.0605ZM72.6807 27.2002C71.7204 27.07 70.874 27.0049 70.1416 27.0049C67.4723 27.0049 65.7227 27.9082 64.8926 29.7148V47H57.8369V20.584H64.502L64.6973 23.7334C66.1133 21.3083 68.0745 20.0957 70.5811 20.0957C71.3623 20.0957 72.0947 20.2015 72.7783 20.4131L72.6807 27.2002ZM74.585 33.5967C74.585 29.5439 75.5452 26.2806 77.4658 23.8066C79.4027 21.3327 82.0068 20.0957 85.2783 20.0957C88.1755 20.0957 90.4297 21.0885 92.041 23.0742L92.334 20.584H98.7305V46.1211C98.7305 48.4323 98.2015 50.4424 97.1436 52.1514C96.1019 53.8604 94.6289 55.1624 92.7246 56.0576C90.8203 56.9528 88.5905 57.4004 86.0352 57.4004C84.0983 57.4004 82.2103 57.0098 80.3711 56.2285C78.5319 55.4635 77.1403 54.4707 76.1963 53.25L79.3213 48.9531C81.0791 50.9225 83.2113 51.9072 85.7178 51.9072C87.5895 51.9072 89.0462 51.4027 90.0879 50.3936C91.1296 49.4007 91.6504 47.9847 91.6504 46.1455V44.7295C90.0228 46.5687 87.8825 47.4883 85.2295 47.4883C82.0557 47.4883 79.484 46.2513 77.5146 43.7773C75.5615 41.2871 74.585 37.9912 74.585 33.8896V33.5967ZM81.6406 34.1094C81.6406 36.502 82.1208 38.3818 83.0811 39.749C84.0413 41.0999 85.3597 41.7754 87.0361 41.7754C89.1846 41.7754 90.7227 40.9697 91.6504 39.3584V28.25C90.7064 26.6387 89.1846 25.833 87.085 25.833C85.3923 25.833 84.0576 26.5247 83.0811 27.9082C82.1208 29.2917 81.6406 31.3587 81.6406 34.1094ZM116.333 47.4883C112.459 47.4883 109.302 46.3001 106.86 43.9238C104.435 41.5475 103.223 38.3818 103.223 34.4268V33.7432C103.223 31.0902 103.735 28.722 104.761 26.6387C105.786 24.5391 107.235 22.9277 109.106 21.8047C110.994 20.6654 113.143 20.0957 115.552 20.0957C119.165 20.0957 122.005 21.235 124.072 23.5137C126.156 25.7923 127.197 29.0231 127.197 33.2061V36.0869H110.376C110.604 37.8122 111.287 39.1956 112.427 40.2373C113.582 41.279 115.039 41.7998 116.797 41.7998C119.515 41.7998 121.639 40.8151 123.169 38.8457L126.636 42.7275C125.578 44.2249 124.146 45.3968 122.339 46.2432C120.532 47.0732 118.53 47.4883 116.333 47.4883ZM115.527 25.8086C114.128 25.8086 112.988 26.2806 112.109 27.2246C111.247 28.1686 110.693 29.5195 110.449 31.2773H120.264V30.7158C120.231 29.1533 119.808 27.9489 118.994 27.1025C118.18 26.2399 117.025 25.8086 115.527 25.8086ZM150.562 23.4648C152.433 21.2188 154.785 20.0957 157.617 20.0957C163.346 20.0957 166.252 23.4242 166.333 30.0811V47H159.277V30.2764C159.277 28.7627 158.952 27.6478 158.301 26.9316C157.65 26.1992 156.567 25.833 155.054 25.833C152.987 25.833 151.489 26.6305 150.562 28.2256V47H143.506V9.5H150.562V23.4648ZM186.963 47C186.637 46.3652 186.401 45.5758 186.255 44.6318C184.546 46.5361 182.324 47.4883 179.59 47.4883C177.002 47.4883 174.854 46.7396 173.145 45.2422C171.452 43.7448 170.605 41.8568 170.605 39.5781C170.605 36.7786 171.639 34.6302 173.706 33.1328C175.789 31.6354 178.792 30.8786 182.715 30.8623H185.962V29.3486C185.962 28.1279 185.645 27.1514 185.01 26.4189C184.391 25.6865 183.407 25.3203 182.056 25.3203C180.868 25.3203 179.932 25.6051 179.248 26.1748C178.581 26.7445 178.247 27.5257 178.247 28.5186H171.191C171.191 26.9886 171.663 25.5726 172.607 24.2705C173.551 22.9684 174.886 21.9512 176.611 21.2188C178.337 20.4701 180.273 20.0957 182.422 20.0957C185.677 20.0957 188.257 20.9176 190.161 22.5615C192.082 24.1891 193.042 26.484 193.042 29.4463V40.8965C193.058 43.403 193.408 45.2992 194.092 46.585V47H186.963ZM181.128 42.0928C182.17 42.0928 183.13 41.8649 184.009 41.4092C184.888 40.9372 185.539 40.3105 185.962 39.5293V34.9883H183.325C179.793 34.9883 177.913 36.209 177.686 38.6504L177.661 39.0654C177.661 39.9443 177.97 40.6686 178.589 41.2383C179.207 41.8079 180.054 42.0928 181.128 42.0928ZM222.266 34.0361C222.266 38.2679 221.362 41.5719 219.556 43.9482C217.749 46.3083 215.226 47.4883 211.987 47.4883C209.123 47.4883 206.836 46.3896 205.127 44.1924L204.81 47H198.462V9.5H205.518V22.9521C207.145 21.0479 209.285 20.0957 211.938 20.0957C215.161 20.0957 217.684 21.2839 219.507 23.6602C221.346 26.0202 222.266 29.3486 222.266 33.6455V34.0361ZM215.21 33.5234C215.21 30.8542 214.787 28.9092 213.94 27.6885C213.094 26.4515 211.833 25.833 210.156 25.833C207.91 25.833 206.364 26.7526 205.518 28.5918V39.0166C206.38 40.8721 207.943 41.7998 210.205 41.7998C212.484 41.7998 213.981 40.6768 214.697 38.4307C215.039 37.3564 215.21 35.7207 215.21 33.5234ZM234.082 47H227.002V20.584H234.082V47ZM226.587 13.748C226.587 12.6901 226.937 11.8193 227.637 11.1357C228.353 10.4521 229.321 10.1104 230.542 10.1104C231.746 10.1104 232.707 10.4521 233.423 11.1357C234.139 11.8193 234.497 12.6901 234.497 13.748C234.497 14.8223 234.131 15.7012 233.398 16.3848C232.682 17.0684 231.73 17.4102 230.542 17.4102C229.354 17.4102 228.394 17.0684 227.661 16.3848C226.945 15.7012 226.587 14.8223 226.587 13.748ZM248.364 14.0898V20.584H252.881V25.7598H248.364V38.9434C248.364 39.9199 248.551 40.6198 248.926 41.043C249.3 41.4661 250.016 41.6777 251.074 41.6777C251.855 41.6777 252.547 41.6208 253.149 41.5068V46.8535C251.766 47.2767 250.342 47.4883 248.877 47.4883C243.929 47.4883 241.406 44.9899 241.309 39.9932V25.7598H237.451V20.584H241.309V14.0898H248.364ZM271.118 39.7002C271.118 38.8376 270.687 38.1621 269.824 37.6738C268.978 37.1693 267.611 36.7217 265.723 36.3311C259.44 35.0127 256.299 32.3434 256.299 28.3232C256.299 25.9795 257.267 24.0264 259.204 22.4639C261.157 20.8851 263.704 20.0957 266.846 20.0957C270.199 20.0957 272.876 20.8851 274.878 22.4639C276.896 24.0426 277.905 26.0934 277.905 28.6162H270.85C270.85 27.6071 270.524 26.777 269.873 26.126C269.222 25.4587 268.205 25.125 266.821 25.125C265.633 25.125 264.714 25.3936 264.062 25.9307C263.411 26.4678 263.086 27.1514 263.086 27.9814C263.086 28.7627 263.452 29.3975 264.185 29.8857C264.933 30.3577 266.187 30.7728 267.944 31.1309C269.702 31.4727 271.183 31.8633 272.388 32.3027C276.115 33.6699 277.979 36.0381 277.979 39.4072C277.979 41.8161 276.945 43.7692 274.878 45.2666C272.811 46.7477 270.142 47.4883 266.87 47.4883C264.657 47.4883 262.687 47.0977 260.962 46.3164C259.253 45.5189 257.91 44.4365 256.934 43.0693C255.957 41.6859 255.469 40.1966 255.469 38.6016H262.158C262.223 39.8548 262.687 40.8151 263.55 41.4824C264.412 42.1497 265.568 42.4834 267.017 42.4834C268.368 42.4834 269.385 42.2311 270.068 41.7266C270.768 41.2057 271.118 40.5303 271.118 39.7002ZM282.91 43.5332C282.91 42.4102 283.285 41.4987 284.033 40.7988C284.798 40.099 285.75 39.749 286.89 39.749C288.045 39.749 288.997 40.099 289.746 40.7988C290.511 41.4987 290.894 42.4102 290.894 43.5332C290.894 44.64 290.519 45.5433 289.771 46.2432C289.022 46.9268 288.062 47.2686 286.89 47.2686C285.734 47.2686 284.782 46.9268 284.033 46.2432C283.285 45.5433 282.91 44.64 282.91 43.5332ZM478.296 37.0146L483.179 20.584H490.747L480.127 51.1016L479.541 52.4932C477.962 55.9437 475.358 57.6689 471.729 57.6689C470.703 57.6689 469.661 57.5143 468.604 57.2051V51.8584L469.678 51.8828C471.012 51.8828 472.005 51.6794 472.656 51.2725C473.324 50.8656 473.844 50.1901 474.219 49.2461L475.049 47.0732L465.796 20.584H473.389L478.296 37.0146ZM492.041 33.5479C492.041 30.9274 492.546 28.5918 493.555 26.541C494.564 24.4902 496.012 22.9033 497.9 21.7803C499.805 20.6572 502.01 20.0957 504.517 20.0957C508.081 20.0957 510.986 21.1862 513.232 23.3672C515.495 25.5482 516.756 28.5104 517.017 32.2539L517.065 34.0605C517.065 38.1133 515.934 41.3685 513.672 43.8262C511.41 46.2676 508.374 47.4883 504.565 47.4883C500.757 47.4883 497.713 46.2676 495.435 43.8262C493.172 41.3848 492.041 38.0645 492.041 33.8652V33.5479ZM499.097 34.0605C499.097 36.5671 499.569 38.4876 500.513 39.8223C501.457 41.1406 502.808 41.7998 504.565 41.7998C506.274 41.7998 507.609 41.1488 508.569 39.8467C509.53 38.5283 510.01 36.4287 510.01 33.5479C510.01 31.0902 509.53 29.1859 508.569 27.835C507.609 26.484 506.258 25.8086 504.517 25.8086C502.791 25.8086 501.457 26.484 500.513 27.835C499.569 29.1696 499.097 31.2448 499.097 34.0605ZM537.231 44.3145C535.49 46.4303 533.081 47.4883 530.005 47.4883C527.173 47.4883 525.008 46.6745 523.511 45.0469C522.03 43.4193 521.273 41.0348 521.24 37.8936V20.584H528.296V37.6494C528.296 40.4001 529.549 41.7754 532.056 41.7754C534.448 41.7754 536.092 40.9453 536.987 39.2852V20.584H544.067V47H537.427L537.231 44.3145ZM564.233 27.2002C563.273 27.07 562.427 27.0049 561.694 27.0049C559.025 27.0049 557.275 27.9082 556.445 29.7148V47H549.39V20.584H556.055L556.25 23.7334C557.666 21.3083 559.627 20.0957 562.134 20.0957C562.915 20.0957 563.647 20.2015 564.331 20.4131L564.233 27.2002ZM587.549 47H580.469V9.5H587.549V47ZM605.542 47.4883C601.668 47.4883 598.511 46.3001 596.069 43.9238C593.644 41.5475 592.432 38.3818 592.432 34.4268V33.7432C592.432 31.0902 592.944 28.722 593.97 26.6387C594.995 24.5391 596.444 22.9277 598.315 21.8047C600.203 20.6654 602.352 20.0957 604.761 20.0957C608.374 20.0957 611.214 21.235 613.281 23.5137C615.365 25.7923 616.406 29.0231 616.406 33.2061V36.0869H599.585C599.813 37.8122 600.496 39.1956 601.636 40.2373C602.791 41.279 604.248 41.7998 606.006 41.7998C608.724 41.7998 610.848 40.8151 612.378 38.8457L615.845 42.7275C614.787 44.2249 613.354 45.3968 611.548 46.2432C609.741 47.0732 607.739 47.4883 605.542 47.4883ZM604.736 25.8086C603.337 25.8086 602.197 26.2806 601.318 27.2246C600.456 28.1686 599.902 29.5195 599.658 31.2773H609.473V30.7158C609.44 29.1533 609.017 27.9489 608.203 27.1025C607.389 26.2399 606.234 25.8086 604.736 25.8086ZM635.742 47C635.417 46.3652 635.181 45.5758 635.034 44.6318C633.325 46.5361 631.104 47.4883 628.369 47.4883C625.781 47.4883 623.633 46.7396 621.924 45.2422C620.231 43.7448 619.385 41.8568 619.385 39.5781C619.385 36.7786 620.418 34.6302 622.485 33.1328C624.569 31.6354 627.572 30.8786 631.494 30.8623H634.741V29.3486C634.741 28.1279 634.424 27.1514 633.789 26.4189C633.171 25.6865 632.186 25.3203 630.835 25.3203C629.647 25.3203 628.711 25.6051 628.027 26.1748C627.36 26.7445 627.026 27.5257 627.026 28.5186H619.971C619.971 26.9886 620.443 25.5726 621.387 24.2705C622.331 22.9684 623.665 21.9512 625.391 21.2188C627.116 20.4701 629.053 20.0957 631.201 20.0957C634.456 20.0957 637.036 20.9176 638.94 22.5615C640.861 24.1891 641.821 26.484 641.821 29.4463V40.8965C641.838 43.403 642.188 45.2992 642.871 46.585V47H635.742ZM629.907 42.0928C630.949 42.0928 631.909 41.8649 632.788 41.4092C633.667 40.9372 634.318 40.3105 634.741 39.5293V34.9883H632.104C628.573 34.9883 626.693 36.209 626.465 38.6504L626.44 39.0654C626.44 39.9443 626.75 40.6686 627.368 41.2383C627.987 41.8079 628.833 42.0928 629.907 42.0928ZM662.085 27.2002C661.125 27.07 660.278 27.0049 659.546 27.0049C656.877 27.0049 655.127 27.9082 654.297 29.7148V47H647.241V20.584H653.906L654.102 23.7334C655.518 21.3083 657.479 20.0957 659.985 20.0957C660.767 20.0957 661.499 20.2015 662.183 20.4131L662.085 27.2002ZM671.997 20.584L672.217 23.6357C674.105 21.2757 676.636 20.0957 679.81 20.0957C682.609 20.0957 684.692 20.9176 686.06 22.5615C687.427 24.2054 688.127 26.6631 688.159 29.9346V47H681.104V30.1055C681.104 28.6081 680.778 27.5257 680.127 26.8584C679.476 26.1748 678.394 25.833 676.88 25.833C674.894 25.833 673.405 26.6794 672.412 28.3721V47H665.356V20.584H671.997ZM700.977 47H693.896V20.584H700.977V47ZM693.481 13.748C693.481 12.6901 693.831 11.8193 694.531 11.1357C695.247 10.4521 696.216 10.1104 697.437 10.1104C698.641 10.1104 699.601 10.4521 700.317 11.1357C701.034 11.8193 701.392 12.6901 701.392 13.748C701.392 14.8223 701.025 15.7012 700.293 16.3848C699.577 17.0684 698.625 17.4102 697.437 17.4102C696.248 17.4102 695.288 17.0684 694.556 16.3848C693.84 15.7012 693.481 14.8223 693.481 13.748ZM713.306 20.584L713.525 23.6357C715.413 21.2757 717.944 20.0957 721.118 20.0957C723.918 20.0957 726.001 20.9176 727.368 22.5615C728.735 24.2054 729.435 26.6631 729.468 29.9346V47H722.412V30.1055C722.412 28.6081 722.087 27.5257 721.436 26.8584C720.785 26.1748 719.702 25.833 718.188 25.833C716.203 25.833 714.714 26.6794 713.721 28.3721V47H706.665V20.584H713.306ZM733.813 33.5967C733.813 29.5439 734.774 26.2806 736.694 23.8066C738.631 21.3327 741.235 20.0957 744.507 20.0957C747.404 20.0957 749.658 21.0885 751.27 23.0742L751.562 20.584H757.959V46.1211C757.959 48.4323 757.43 50.4424 756.372 52.1514C755.33 53.8604 753.857 55.1624 751.953 56.0576C750.049 56.9528 747.819 57.4004 745.264 57.4004C743.327 57.4004 741.439 57.0098 739.6 56.2285C737.76 55.4635 736.369 54.4707 735.425 53.25L738.55 48.9531C740.308 50.9225 742.44 51.9072 744.946 51.9072C746.818 51.9072 748.275 51.4027 749.316 50.3936C750.358 49.4007 750.879 47.9847 750.879 46.1455V44.7295C749.251 46.5687 747.111 47.4883 744.458 47.4883C741.284 47.4883 738.713 46.2513 736.743 43.7773C734.79 41.2871 733.813 37.9912 733.813 33.8896V33.5967ZM740.869 34.1094C740.869 36.502 741.349 38.3818 742.31 39.749C743.27 41.0999 744.588 41.7754 746.265 41.7754C748.413 41.7754 749.951 40.9697 750.879 39.3584V28.25C749.935 26.6387 748.413 25.833 746.313 25.833C744.621 25.833 743.286 26.5247 742.31 27.9082C741.349 29.2917 740.869 31.3587 740.869 34.1094ZM763.77 43.5332C763.77 42.4102 764.144 41.4987 764.893 40.7988C765.658 40.099 766.61 39.749 767.749 39.749C768.905 39.749 769.857 40.099 770.605 40.7988C771.37 41.4987 771.753 42.4102 771.753 43.5332C771.753 44.64 771.379 45.5433 770.63 46.2432C769.881 46.9268 768.921 47.2686 767.749 47.2686C766.593 47.2686 765.641 46.9268 764.893 46.2432C764.144 45.5433 763.77 44.64 763.77 43.5332Z" fill="#070836"/>
<path d="M317.334 34.4756V47H310.01V11.4531H323.877C326.546 11.4531 328.89 11.9414 330.908 12.918C332.943 13.8945 334.505 15.2861 335.596 17.0928C336.686 18.8831 337.231 20.9258 337.231 23.2207C337.231 26.7038 336.035 29.4544 333.643 31.4727C331.266 33.4746 327.97 34.4756 323.755 34.4756H317.334ZM317.334 28.543H323.877C325.814 28.543 327.287 28.0872 328.296 27.1758C329.321 26.2643 329.834 24.9622 329.834 23.2695C329.834 21.528 329.321 20.1201 328.296 19.0459C327.271 17.9717 325.854 17.4183 324.048 17.3857H317.334V28.543ZM356.665 27.2002C355.705 27.07 354.858 27.0049 354.126 27.0049C351.457 27.0049 349.707 27.9082 348.877 29.7148V47H341.821V20.584H348.486L348.682 23.7334C350.098 21.3083 352.059 20.0957 354.565 20.0957C355.347 20.0957 356.079 20.2015 356.763 20.4131L356.665 27.2002ZM358.105 33.5479C358.105 30.9274 358.61 28.5918 359.619 26.541C360.628 24.4902 362.077 22.9033 363.965 21.7803C365.869 20.6572 368.075 20.0957 370.581 20.0957C374.146 20.0957 377.051 21.1862 379.297 23.3672C381.559 25.5482 382.821 28.5104 383.081 32.2539L383.13 34.0605C383.13 38.1133 381.999 41.3685 379.736 43.8262C377.474 46.2676 374.438 47.4883 370.63 47.4883C366.821 47.4883 363.778 46.2676 361.499 43.8262C359.237 41.3848 358.105 38.0645 358.105 33.8652V33.5479ZM365.161 34.0605C365.161 36.5671 365.633 38.4876 366.577 39.8223C367.521 41.1406 368.872 41.7998 370.63 41.7998C372.339 41.7998 373.674 41.1488 374.634 39.8467C375.594 38.5283 376.074 36.4287 376.074 33.5479C376.074 31.0902 375.594 29.1859 374.634 27.835C373.674 26.484 372.323 25.8086 370.581 25.8086C368.856 25.8086 367.521 26.484 366.577 27.835C365.633 29.1696 365.161 31.2448 365.161 34.0605ZM411.255 34.0361C411.255 38.1051 410.327 41.3685 408.472 43.8262C406.632 46.2676 404.142 47.4883 401.001 47.4883C398.332 47.4883 396.175 46.5605 394.531 44.7051V57.1562H387.476V20.584H394.019L394.263 23.1719C395.972 21.1211 398.201 20.0957 400.952 20.0957C404.207 20.0957 406.738 21.3001 408.545 23.709C410.352 26.1178 411.255 29.4382 411.255 33.6699V34.0361ZM404.199 33.5234C404.199 31.0658 403.76 29.1696 402.881 27.835C402.018 26.5003 400.757 25.833 399.097 25.833C396.883 25.833 395.361 26.6794 394.531 28.3721V39.1875C395.394 40.929 396.932 41.7998 399.146 41.7998C402.515 41.7998 404.199 39.041 404.199 33.5234ZM427.808 47.4883C423.934 47.4883 420.776 46.3001 418.335 43.9238C415.91 41.5475 414.697 38.3818 414.697 34.4268V33.7432C414.697 31.0902 415.21 28.722 416.235 26.6387C417.261 24.5391 418.709 22.9277 420.581 21.8047C422.469 20.6654 424.618 20.0957 427.026 20.0957C430.64 20.0957 433.48 21.235 435.547 23.5137C437.63 25.7923 438.672 29.0231 438.672 33.2061V36.0869H421.851C422.078 37.8122 422.762 39.1956 423.901 40.2373C425.057 41.279 426.514 41.7998 428.271 41.7998C430.99 41.7998 433.114 40.8151 434.644 38.8457L438.11 42.7275C437.052 44.2249 435.62 45.3968 433.813 46.2432C432.007 47.0732 430.005 47.4883 427.808 47.4883ZM427.002 25.8086C425.602 25.8086 424.463 26.2806 423.584 27.2246C422.721 28.1686 422.168 29.5195 421.924 31.2773H431.738V30.7158C431.706 29.1533 431.283 27.9489 430.469 27.1025C429.655 26.2399 428.499 25.8086 427.002 25.8086ZM450.146 47H443.066V9.5H450.146V47Z" fill="white"/>
</svg>
