<svg width="694" height="795" viewBox="0 0 694 795" fill="none" xmlns="http://www.w3.org/2000/svg">
<circle cx="286.5" cy="154.5" r="154.5" fill="#35CAD3"/>
<circle cx="535" cy="412" r="383" fill="#070836"/>
<circle cx="287" cy="155" r="126" fill="#1EA945"/>
<g clip-path="url(#clip0)">
<path d="M585.61 540.423H243.637C243.386 540.423 243.145 540.323 242.967 540.146C242.79 539.969 242.69 539.729 242.69 539.478V316.538C242.691 316.288 242.791 316.049 242.968 315.872C243.146 315.695 243.386 315.596 243.637 315.596C243.888 315.596 244.128 315.695 244.306 315.872C244.484 316.049 244.584 316.288 244.584 316.538V538.534H585.61C585.861 538.534 586.101 538.634 586.279 538.811C586.456 538.988 586.555 539.228 586.555 539.478C586.555 539.728 586.456 539.968 586.279 540.145C586.101 540.322 585.861 540.422 585.61 540.423Z" fill="#3F3D56"/>
<path d="M585.61 496.024H243.637C243.386 496.023 243.146 495.923 242.969 495.746C242.792 495.569 242.693 495.329 242.693 495.079C242.693 494.829 242.792 494.589 242.969 494.412C243.146 494.235 243.386 494.135 243.637 494.135H585.61C585.861 494.135 586.101 494.235 586.278 494.412C586.456 494.589 586.555 494.829 586.555 495.079C586.555 495.329 586.456 495.569 586.278 495.746C586.101 495.923 585.861 496.023 585.61 496.024Z" fill="#3F3D56"/>
<path d="M586.084 460.127H244.111C243.86 460.127 243.619 460.027 243.441 459.85C243.263 459.673 243.164 459.432 243.164 459.182C243.164 458.931 243.263 458.691 243.441 458.514C243.619 458.337 243.86 458.237 244.111 458.237H586.084C586.335 458.238 586.575 458.338 586.752 458.515C586.929 458.692 587.029 458.932 587.029 459.182C587.029 459.432 586.929 459.672 586.752 459.849C586.575 460.026 586.335 460.126 586.084 460.127Z" fill="#3F3D56"/>
<path d="M586.084 424.23H244.111C243.86 424.229 243.62 424.129 243.443 423.952C243.266 423.775 243.166 423.535 243.166 423.285C243.166 423.035 243.266 422.795 243.443 422.618C243.62 422.441 243.86 422.341 244.111 422.34H586.084C586.335 422.341 586.575 422.441 586.752 422.618C586.929 422.795 587.029 423.035 587.029 423.285C587.029 423.535 586.929 423.775 586.752 423.952C586.575 424.129 586.335 424.229 586.084 424.23Z" fill="#3F3D56"/>
<path d="M586.084 388.332H244.111C243.86 388.332 243.619 388.233 243.441 388.056C243.263 387.879 243.164 387.638 243.164 387.388C243.164 387.137 243.263 386.897 243.441 386.72C243.619 386.543 243.86 386.443 244.111 386.443H586.084C586.335 386.443 586.576 386.543 586.754 386.72C586.932 386.897 587.031 387.137 587.031 387.388C587.031 387.638 586.932 387.879 586.754 388.056C586.576 388.233 586.335 388.332 586.084 388.332Z" fill="#3F3D56"/>
<path d="M586.084 352.435H244.111C243.86 352.435 243.619 352.336 243.441 352.159C243.263 351.981 243.164 351.741 243.164 351.491C243.164 351.24 243.263 351 243.441 350.823C243.619 350.645 243.86 350.546 244.111 350.546H586.084C586.335 350.546 586.576 350.645 586.754 350.823C586.932 351 587.031 351.24 587.031 351.491C587.031 351.741 586.932 351.981 586.754 352.159C586.576 352.336 586.335 352.435 586.084 352.435Z" fill="#3F3D56"/>
<path d="M586.084 316.538H244.111C243.86 316.537 243.62 316.438 243.443 316.26C243.266 316.083 243.166 315.844 243.166 315.593C243.166 315.343 243.266 315.104 243.443 314.926C243.62 314.749 243.86 314.65 244.111 314.649H586.084C586.335 314.65 586.575 314.749 586.752 314.926C586.929 315.104 587.029 315.343 587.029 315.593C587.029 315.844 586.929 316.083 586.752 316.26C586.575 316.438 586.335 316.537 586.084 316.538Z" fill="#3F3D56"/>
<path d="M277.191 538.828H265.25C263.781 538.826 262.374 538.244 261.335 537.208C260.297 536.173 259.713 534.769 259.711 533.305V500.461C259.713 498.997 260.297 497.593 261.335 496.557C262.374 495.522 263.781 494.94 265.25 494.938H277.191C278.66 494.94 280.068 495.522 281.106 496.557C282.144 497.593 282.728 498.997 282.73 500.461V533.305C282.728 534.769 282.144 536.173 281.106 537.208C280.068 538.244 278.66 538.826 277.191 538.828Z" fill="#3F3D56"/>
<path d="M326.924 538.828H314.982C313.514 538.826 312.106 538.244 311.068 537.208C310.03 536.173 309.446 534.769 309.444 533.305V472.651C309.446 471.187 310.03 469.783 311.068 468.748C312.106 467.712 313.514 467.13 314.982 467.128H326.924C328.393 467.13 329.8 467.712 330.839 468.748C331.877 469.783 332.461 471.187 332.463 472.651V533.305C332.461 534.769 331.877 536.173 330.839 537.208C329.8 538.244 328.393 538.826 326.924 538.828Z" fill="#3F3D56"/>
<path d="M426.39 538.828H414.448C412.98 538.826 411.572 538.244 410.534 537.208C409.496 536.173 408.912 534.769 408.91 533.305V407.215C408.912 405.751 409.496 404.347 410.534 403.311C411.572 402.276 412.98 401.694 414.448 401.692H426.39C427.859 401.694 429.266 402.276 430.305 403.311C431.343 404.347 431.927 405.751 431.928 407.215V533.305C431.927 534.769 431.343 536.173 430.305 537.208C429.266 538.244 427.859 538.826 426.39 538.828Z" fill="#E6E6E6"/>
<path d="M376.184 538.828H364.242C362.774 538.826 361.366 538.244 360.328 537.208C359.289 536.173 358.705 534.769 358.704 533.305V450.394C358.705 448.93 359.289 447.526 360.328 446.49C361.366 445.455 362.774 444.872 364.242 444.871H376.184C377.652 444.872 379.06 445.455 380.098 446.49C381.136 447.526 381.72 448.93 381.722 450.394V533.305C381.72 534.769 381.136 536.173 380.098 537.208C379.06 538.244 377.652 538.826 376.184 538.828Z" fill="#3F3D56"/>
<path d="M476.123 538.828H464.181C462.713 538.826 461.305 538.244 460.267 537.208C459.229 536.173 458.645 534.769 458.643 533.305V374.029C458.645 372.565 459.229 371.161 460.267 370.126C461.305 369.09 462.713 368.508 464.181 368.506H476.123C477.592 368.508 478.999 369.09 480.038 370.126C481.076 371.161 481.66 372.565 481.662 374.029V533.305C481.66 534.769 481.076 536.173 480.038 537.208C478.999 538.244 477.592 538.826 476.123 538.828Z" fill="#3F3D56"/>
<path d="M525.856 538.828H513.914C512.446 538.826 511.038 538.244 510 537.208C508.962 536.173 508.378 534.769 508.376 533.305V407.215C508.378 405.751 508.962 404.347 510 403.311C511.038 402.276 512.446 401.694 513.914 401.692H525.856C527.325 401.694 528.732 402.276 529.771 403.311C530.809 404.347 531.393 405.751 531.395 407.215V533.305C531.393 534.769 530.809 536.173 529.771 537.208C528.732 538.244 527.325 538.826 525.856 538.828Z" fill="#3F3D56"/>
<path d="M575.589 538.828H563.648C562.179 538.826 560.772 538.244 559.733 537.208C558.695 536.173 558.111 534.769 558.109 533.305V320.03C558.111 318.566 558.695 317.162 559.733 316.127C560.772 315.092 562.179 314.509 563.648 314.507H575.589C577.058 314.509 578.465 315.092 579.504 316.127C580.542 317.162 581.126 318.566 581.128 320.03V533.305C581.126 534.769 580.542 536.173 579.504 537.208C578.465 538.244 577.058 538.826 575.589 538.828Z" fill="#E6E6E6"/>
<path d="M417.155 351.943C436.207 351.943 451.652 336.541 451.652 317.542C451.652 298.543 436.207 283.141 417.155 283.141C398.103 283.141 382.658 298.543 382.658 317.542C382.658 336.541 398.103 351.943 417.155 351.943Z" fill="#2F2E41"/>
<path d="M404.037 340.144L387.248 348.528L391.941 357.873L408.73 349.488L404.037 340.144Z" fill="#2F2E41"/>
<path d="M394.154 356.924C395.15 355.419 392.693 352.052 388.666 349.404C384.639 346.756 380.567 345.831 379.572 347.336C378.576 348.842 381.033 352.209 385.06 354.857C389.087 357.505 393.158 358.43 394.154 356.924Z" fill="#2F2E41"/>
<path d="M430.273 340.144L425.58 349.488L442.37 357.873L447.062 348.528L430.273 340.144Z" fill="#2F2E41"/>
<path d="M449.25 354.857C453.277 352.209 455.734 348.842 454.738 347.336C453.743 345.83 449.671 346.756 445.644 349.404C441.618 352.051 439.16 355.418 440.156 356.924C441.152 358.43 445.223 357.505 449.25 354.857Z" fill="#2F2E41"/>
<path d="M414.74 320.885C421.252 320.885 426.53 315.621 426.53 309.127C426.53 302.634 421.252 297.37 414.74 297.37C408.229 297.37 402.95 302.634 402.95 309.127C402.95 315.621 408.229 320.885 414.74 320.885Z" fill="white"/>
<path d="M417.608 316.7C419.136 315.175 419.128 312.696 417.588 311.161C416.049 309.626 413.563 309.617 412.034 311.141C410.506 312.665 410.515 315.145 412.054 316.68C413.593 318.215 416.08 318.224 417.608 316.7Z" fill="#3F3D56"/>
<path d="M444.368 280.118C444.887 267.382 433.88 256.595 419.784 256.024C405.687 255.453 393.839 265.314 393.32 278.05C392.801 290.785 402.6 293.679 416.697 294.25C430.793 294.821 443.849 292.853 444.368 280.118Z" fill="#30C65A"/>
<path d="M464.253 335.556C466.522 333.613 463.332 326.195 457.127 318.987C450.922 311.78 444.052 307.511 441.783 309.454C439.514 311.396 442.705 318.814 448.91 326.022C455.115 333.23 461.984 337.498 464.253 335.556Z" fill="#2F2E41"/>
<path d="M385.497 326.022C391.702 318.814 394.893 311.396 392.624 309.454C390.355 307.511 383.485 311.779 377.28 318.987C371.075 326.195 367.885 333.613 370.154 335.556C372.423 337.498 379.292 333.23 385.497 326.022Z" fill="#2F2E41"/>
<path d="M426.63 331.099C426.815 332.112 426.798 333.151 426.58 334.157C426.362 335.163 425.948 336.116 425.36 336.963C424.773 337.809 424.024 338.532 423.157 339.09C422.289 339.648 421.32 340.03 420.305 340.214C419.289 340.399 418.247 340.382 417.238 340.164C416.229 339.947 415.273 339.534 414.424 338.948C413.575 338.363 412.851 337.616 412.291 336.751C411.732 335.886 411.349 334.919 411.164 333.907L411.161 333.891C410.388 329.632 413.691 328.124 417.962 327.353C422.234 326.582 425.857 326.839 426.63 331.099Z" fill="white"/>
<path d="M693.225 511.43C695.575 509.467 692.399 501.824 686.13 494.357C679.861 486.89 672.874 482.429 670.523 484.391C668.173 486.354 671.349 493.997 677.618 501.464C683.887 508.93 690.874 513.392 693.225 511.43Z" fill="#2F2E41"/>
<path d="M677.81 502.939C683.986 484.462 673.972 464.491 655.444 458.332C636.916 452.173 616.889 462.159 610.713 480.636C604.537 499.112 614.55 519.083 633.079 525.242C651.607 531.401 671.634 521.416 677.81 502.939Z" fill="#2F2E41"/>
<path d="M659.229 519.463H648.486V538.658H659.229V519.463Z" fill="#2F2E41"/>
<path d="M637.743 519.463H627V538.658H637.743V519.463Z" fill="#2F2E41"/>
<path d="M650.277 542.229C655.221 542.229 659.229 540.73 659.229 538.881C659.229 537.032 655.221 535.533 650.277 535.533C645.332 535.533 641.324 537.032 641.324 538.881C641.324 540.73 645.332 542.229 650.277 542.229Z" fill="#2F2E41"/>
<path d="M628.79 541.783C633.735 541.783 637.743 540.284 637.743 538.435C637.743 536.586 633.735 535.087 628.79 535.087C623.846 535.087 619.838 536.586 619.838 538.435C619.838 540.284 623.846 541.783 628.79 541.783Z" fill="#2F2E41"/>
<path d="M633.158 447.458C636.315 434.777 650.254 427.315 664.29 430.79C678.326 434.266 687.145 447.364 683.987 460.045C680.83 472.726 670.354 472.767 656.317 469.291C642.281 465.816 630 460.14 633.158 447.458Z" fill="#CCCCCC"/>
<path d="M620.407 482.98C621.72 480.218 615.633 474.596 606.81 470.423C597.987 466.25 589.769 465.106 588.455 467.868C587.142 470.63 593.229 476.252 602.052 480.425C610.876 484.598 619.093 485.742 620.407 482.98Z" fill="#2F2E41"/>
<path d="M638.975 496.103C645.486 496.103 650.765 490.839 650.765 484.346C650.765 477.853 645.486 472.589 638.975 472.589C632.463 472.589 627.185 477.853 627.185 484.346C627.185 490.839 632.463 496.103 638.975 496.103Z" fill="white"/>
<path d="M634.129 484.051C636.299 484.051 638.059 482.296 638.059 480.132C638.059 477.967 636.299 476.213 634.129 476.213C631.958 476.213 630.199 477.967 630.199 480.132C630.199 482.296 631.958 484.051 634.129 484.051Z" fill="#3F3D56"/>
<path d="M646.371 508.842C646.742 510.886 646.285 512.994 645.099 514.702C643.912 516.411 642.094 517.579 640.045 517.951C637.995 518.323 635.88 517.869 634.167 516.687C632.453 515.505 631.28 513.693 630.905 511.649L630.902 511.634C630.129 507.375 633.431 505.867 637.703 505.096C641.975 504.325 645.598 504.582 646.371 508.842Z" fill="white"/>
<path d="M596.261 551H584.319C582.851 550.998 581.443 550.416 580.405 549.38C579.366 548.345 578.782 546.941 578.781 545.477V332.203C578.782 330.738 579.366 329.335 580.405 328.299C581.443 327.264 582.851 326.681 584.319 326.68H596.261C597.729 326.681 599.137 327.264 600.175 328.299C601.213 329.335 601.797 330.738 601.799 332.203V545.477C601.797 546.941 601.213 548.345 600.175 549.38C599.137 550.416 597.729 550.998 596.261 551Z" fill="#30C65A"/>
<path d="M425.325 445.733L413.735 448.605C412.31 448.956 410.803 448.73 409.545 447.974C408.287 447.219 407.381 445.997 407.025 444.577L376.531 322.209C376.178 320.787 376.406 319.284 377.163 318.03C377.92 316.775 379.146 315.871 380.57 315.517L392.159 312.645C393.585 312.293 395.092 312.52 396.35 313.275C397.608 314.03 398.514 315.252 398.87 316.673L429.364 439.041C429.716 440.462 429.489 441.965 428.732 443.22C427.975 444.474 426.749 445.378 425.325 445.733Z" fill="#A4142E"/>
<path d="M221.032 334.014C226.021 334.014 230.064 329.982 230.064 325.007C230.064 320.033 226.021 316 221.032 316C216.044 316 212 320.033 212 325.007C212 329.982 216.044 334.014 221.032 334.014Z" fill="#E6E6E6"/>
<path d="M221.032 369.911C226.021 369.911 230.064 365.879 230.064 360.904C230.064 355.93 226.021 351.897 221.032 351.897C216.044 351.897 212 355.93 212 360.904C212 365.879 216.044 369.911 221.032 369.911Z" fill="#E6E6E6"/>
<path d="M221.032 405.809C226.021 405.809 230.064 401.776 230.064 396.802C230.064 391.827 226.021 387.794 221.032 387.794C216.044 387.794 212 391.827 212 396.802C212 401.776 216.044 405.809 221.032 405.809Z" fill="#E6E6E6"/>
<path d="M221.032 441.706C226.021 441.706 230.064 437.673 230.064 432.699C230.064 427.724 226.021 423.691 221.032 423.691C216.044 423.691 212 427.724 212 432.699C212 437.673 216.044 441.706 221.032 441.706Z" fill="#E6E6E6"/>
<path d="M221.032 477.603C226.021 477.603 230.064 473.57 230.064 468.596C230.064 463.621 226.021 459.589 221.032 459.589C216.044 459.589 212 463.621 212 468.596C212 473.57 216.044 477.603 221.032 477.603Z" fill="#E6E6E6"/>
<path d="M221.032 513.5C226.021 513.5 230.064 509.467 230.064 504.493C230.064 499.518 226.021 495.486 221.032 495.486C216.044 495.486 212 499.518 212 504.493C212 509.467 216.044 513.5 221.032 513.5Z" fill="#E6E6E6"/>
</g>
<defs>
<clipPath id="clip0">
<rect width="694" height="295" fill="white" transform="translate(0 256)"/>
</clipPath>
</defs>
</svg>
