<svg width="358" height="81" viewBox="0 0 358 81" fill="none" xmlns="http://www.w3.org/2000/svg">
<rect x="8.35327" y="6.45129" width="349.647" height="74.5487" fill="#30C65A"/>
<rect width="349.647" height="74.5487" fill="#070836"/>
<path d="M115.469 38.7026H108.789V50.2065H105.02V21.769H114.434C117.637 21.769 120.098 22.4982 121.816 23.9565C123.548 25.4149 124.414 27.5373 124.414 30.3237C124.414 32.0946 123.932 33.6375 122.969 34.9526C122.018 36.2677 120.69 37.2508 118.984 37.9019L125.664 49.9722V50.2065H121.641L115.469 38.7026ZM108.789 35.6362H114.551C116.413 35.6362 117.891 35.1545 118.984 34.1909C120.091 33.2274 120.645 31.9383 120.645 30.3237C120.645 28.5659 120.117 27.2183 119.062 26.2808C118.021 25.3433 116.51 24.868 114.531 24.855H108.789V35.6362ZM137.891 50.5972C135.026 50.5972 132.695 49.6597 130.898 47.7847C129.102 45.8966 128.203 43.3771 128.203 40.2261V39.562C128.203 37.4657 128.6 35.5972 129.395 33.9565C130.202 32.3029 131.322 31.0138 132.754 30.0894C134.199 29.1519 135.762 28.6831 137.441 28.6831C140.189 28.6831 142.324 29.5881 143.848 31.3979C145.371 33.2078 146.133 35.799 146.133 39.1714V40.6753H131.816C131.868 42.7586 132.474 44.4448 133.633 45.7339C134.805 47.0099 136.289 47.6479 138.086 47.6479C139.362 47.6479 140.443 47.3875 141.328 46.8667C142.214 46.3459 142.988 45.6558 143.652 44.7964L145.859 46.5151C144.089 49.2365 141.432 50.5972 137.891 50.5972ZM137.441 31.6519C135.983 31.6519 134.759 32.1857 133.77 33.2534C132.78 34.3081 132.168 35.7925 131.934 37.7065H142.52V37.4331C142.415 35.5972 141.921 34.1779 141.035 33.1753C140.15 32.1597 138.952 31.6519 137.441 31.6519ZM149.473 39.4644C149.473 36.1701 150.234 33.5529 151.758 31.6128C153.281 29.6597 155.299 28.6831 157.812 28.6831C160.391 28.6831 162.402 29.5946 163.848 31.4175L164.023 29.0737H167.324V49.6987C167.324 52.4331 166.51 54.5881 164.883 56.1636C163.268 57.7391 161.094 58.5269 158.359 58.5269C156.836 58.5269 155.345 58.2013 153.887 57.5503C152.428 56.8993 151.315 56.0073 150.547 54.8745L152.422 52.7065C153.971 54.6206 155.866 55.5776 158.105 55.5776C159.863 55.5776 161.23 55.0828 162.207 54.0933C163.197 53.1037 163.691 51.7104 163.691 49.9136V48.0972C162.246 49.7638 160.273 50.5972 157.773 50.5972C155.299 50.5972 153.294 49.6011 151.758 47.6089C150.234 45.6167 149.473 42.9019 149.473 39.4644ZM153.105 39.8745C153.105 42.2573 153.594 44.1323 154.57 45.4995C155.547 46.8537 156.914 47.5308 158.672 47.5308C160.951 47.5308 162.624 46.4956 163.691 44.4253V34.7769C162.585 32.7586 160.924 31.7495 158.711 31.7495C156.953 31.7495 155.579 32.4331 154.59 33.8003C153.6 35.1675 153.105 37.1922 153.105 39.8745ZM176.719 50.2065H173.105V29.0737H176.719V50.2065ZM172.812 23.4683C172.812 22.8823 172.988 22.3875 173.34 21.9839C173.704 21.5802 174.238 21.3784 174.941 21.3784C175.645 21.3784 176.178 21.5802 176.543 21.9839C176.908 22.3875 177.09 22.8823 177.09 23.4683C177.09 24.0542 176.908 24.5425 176.543 24.9331C176.178 25.3237 175.645 25.519 174.941 25.519C174.238 25.519 173.704 25.3237 173.34 24.9331C172.988 24.5425 172.812 24.0542 172.812 23.4683ZM194.824 44.6011C194.824 43.6245 194.453 42.8693 193.711 42.3354C192.982 41.7886 191.699 41.3198 189.863 40.9292C188.04 40.5386 186.589 40.0698 185.508 39.5229C184.44 38.9761 183.646 38.325 183.125 37.5698C182.617 36.8146 182.363 35.9162 182.363 34.8745C182.363 33.1427 183.092 31.6779 184.551 30.48C186.022 29.2821 187.897 28.6831 190.176 28.6831C192.572 28.6831 194.512 29.3016 195.996 30.5386C197.493 31.7756 198.242 33.3576 198.242 35.2847H194.609C194.609 34.2951 194.186 33.4422 193.34 32.7261C192.507 32.0099 191.452 31.6519 190.176 31.6519C188.861 31.6519 187.832 31.9383 187.09 32.5112C186.348 33.0841 185.977 33.8328 185.977 34.7573C185.977 35.6297 186.322 36.2873 187.012 36.73C187.702 37.1727 188.945 37.5959 190.742 37.9995C192.552 38.4032 194.017 38.8849 195.137 39.4448C196.257 40.0047 197.083 40.6818 197.617 41.4761C198.164 42.2573 198.438 43.2144 198.438 44.3472C198.438 46.2352 197.682 47.7521 196.172 48.8979C194.661 50.0308 192.702 50.5972 190.293 50.5972C188.6 50.5972 187.103 50.2977 185.801 49.6987C184.499 49.0998 183.477 48.2664 182.734 47.1987C182.005 46.118 181.641 44.9526 181.641 43.7026H185.254C185.319 44.9136 185.801 45.8771 186.699 46.5933C187.611 47.2964 188.809 47.6479 190.293 47.6479C191.66 47.6479 192.754 47.3745 193.574 46.8276C194.408 46.2677 194.824 45.5256 194.824 44.6011ZM208.047 23.9565V29.0737H211.992V31.8667H208.047V44.9722C208.047 45.8185 208.223 46.4565 208.574 46.8862C208.926 47.3029 209.525 47.5112 210.371 47.5112C210.788 47.5112 211.361 47.4331 212.09 47.2769V50.2065C211.139 50.467 210.215 50.5972 209.316 50.5972C207.702 50.5972 206.484 50.1089 205.664 49.1323C204.844 48.1558 204.434 46.769 204.434 44.9722V31.8667H200.586V29.0737H204.434V23.9565H208.047ZM225 50.5972C222.135 50.5972 219.805 49.6597 218.008 47.7847C216.211 45.8966 215.312 43.3771 215.312 40.2261V39.562C215.312 37.4657 215.71 35.5972 216.504 33.9565C217.311 32.3029 218.431 31.0138 219.863 30.0894C221.309 29.1519 222.871 28.6831 224.551 28.6831C227.298 28.6831 229.434 29.5881 230.957 31.3979C232.48 33.2078 233.242 35.799 233.242 39.1714V40.6753H218.926C218.978 42.7586 219.583 44.4448 220.742 45.7339C221.914 47.0099 223.398 47.6479 225.195 47.6479C226.471 47.6479 227.552 47.3875 228.438 46.8667C229.323 46.3459 230.098 45.6558 230.762 44.7964L232.969 46.5151C231.198 49.2365 228.542 50.5972 225 50.5972ZM224.551 31.6519C223.092 31.6519 221.868 32.1857 220.879 33.2534C219.889 34.3081 219.277 35.7925 219.043 37.7065H229.629V37.4331C229.525 35.5972 229.03 34.1779 228.145 33.1753C227.259 32.1597 226.061 31.6519 224.551 31.6519ZM247.656 32.3159C247.109 32.2248 246.517 32.1792 245.879 32.1792C243.509 32.1792 241.901 33.1883 241.055 35.2065V50.2065H237.441V29.0737H240.957L241.016 31.5151C242.201 29.6271 243.88 28.6831 246.055 28.6831C246.758 28.6831 247.292 28.7743 247.656 28.9565V32.3159Z" fill="white"/>
</svg>
