<svg width="784" height="513" viewBox="0 0 784 513" fill="none" xmlns="http://www.w3.org/2000/svg">
<g clip-path="url(#clip0)">
<path d="M618.691 154.467H282.162V156.127H618.691V154.467Z" fill="#CCCCCC"/>
<path d="M450.991 0.831718H449.33V155.295H450.991V0.831718Z" fill="#CCCCCC"/>
<path d="M591.876 77.2334H308.445V78.894H591.876V77.2334Z" fill="#CCCCCC"/>
<path d="M503.758 274.279C503.761 282.727 500.695 290.888 495.129 297.245C494.631 297.817 494.108 298.365 493.577 298.905H444.165C443.634 298.365 443.11 297.817 442.612 297.245C439.348 293.525 436.915 289.152 435.478 284.417C435.478 284.417 435.487 284.417 435.478 284.408C434.485 281.124 433.981 277.71 433.984 274.279C433.981 272.866 434.067 271.455 434.241 270.053C435.274 261.605 439.361 253.827 445.731 248.182C452.1 242.537 460.314 239.416 468.826 239.404C477.338 239.393 485.56 242.493 491.945 248.121C498.33 253.749 502.437 261.517 503.492 269.961C503.669 271.394 503.758 272.836 503.758 274.279V274.279Z" fill="#2F2E41"/>
<path d="M424.899 298.905H420.63L423.944 297.245L424.043 297.195L424.068 297.245L424.899 298.905Z" fill="#2F2E41"/>
<path d="M453.989 298.905H449.721L450.551 297.245L450.576 297.195L450.676 297.245L453.989 298.905Z" fill="#2F2E41"/>
<path d="M466.428 277.67C473.013 277.67 478.352 272.332 478.352 265.748C478.352 259.164 473.013 253.826 466.428 253.826C459.842 253.826 454.503 259.164 454.503 265.748C454.503 272.332 459.842 277.67 466.428 277.67Z" fill="white"/>
<path d="M465.176 270.935C466.722 269.389 466.713 266.875 465.156 265.318C463.599 263.762 461.084 263.753 459.539 265.299C457.993 266.844 458.002 269.359 459.558 270.915C461.115 272.471 463.63 272.48 465.176 270.935Z" fill="#3F3D56"/>
<path d="M496.392 236.332C496.917 223.418 485.785 212.48 471.528 211.901C457.271 211.322 445.289 221.321 444.764 234.235C444.239 247.149 454.15 250.083 468.406 250.662C482.663 251.241 495.868 249.246 496.392 236.332Z" fill="#30C65A"/>
<path d="M478.452 288.027C478.639 289.054 478.622 290.107 478.402 291.128C478.181 292.148 477.762 293.115 477.168 293.973C476.574 294.831 475.817 295.564 474.94 296.13C474.062 296.695 473.082 297.083 472.055 297.27C471.028 297.457 469.974 297.44 468.954 297.219C467.933 296.999 466.966 296.58 466.108 295.986C465.249 295.392 464.516 294.635 463.951 293.758C463.385 292.881 462.997 291.901 462.811 290.874L462.808 290.858C462.026 286.539 465.366 285.011 469.686 284.229C474.006 283.447 477.67 283.708 478.452 288.027Z" fill="white"/>
<path d="M650.298 297.243H241.719C237.755 297.243 233.952 298.818 231.149 301.62C228.346 304.423 226.771 308.225 226.771 312.188C226.771 316.152 228.346 319.953 231.149 322.756C233.952 325.559 237.755 327.133 241.719 327.133H650.298C654.263 327.133 658.065 325.559 660.868 322.756C663.671 319.953 665.246 316.152 665.246 312.188C665.246 308.225 663.671 304.423 660.868 301.62C658.065 298.818 654.263 297.243 650.298 297.243V297.243Z" fill="#CCCCCC"/>
<path d="M619.572 169.379V298.073H617.911V169.379C617.911 164.92 617.737 160.503 617.388 156.127C617.346 155.571 617.305 155.023 617.255 154.467C614.876 127.548 605.984 101.611 591.345 78.894C590.988 78.3377 590.631 77.7897 590.265 77.2334C575.078 54.1376 554.415 35.1534 530.117 21.9699C505.818 8.7865 478.637 1.81265 450.991 1.66888C450.717 1.66058 450.435 1.66057 450.161 1.66057C449.887 1.66057 449.605 1.66058 449.33 1.66888C446.183 1.67718 443.061 1.77682 439.963 1.96778C427.825 2.6924 415.803 4.74438 404.112 8.087C397.49 9.97775 390.992 12.2793 384.655 14.9784C354.223 27.9702 328.281 49.6192 310.056 77.2334C309.691 77.7897 309.334 78.3377 308.977 78.894C294.338 101.611 285.446 127.548 283.067 154.467C283.017 155.023 282.976 155.571 282.934 156.127C282.585 160.503 282.411 164.92 282.411 169.379V298.073H280.75V169.379C280.75 164.331 280.969 159.341 281.406 154.409C283.824 126.816 293.024 100.248 308.188 77.0673C330.725 42.4031 365.156 17.1683 405.001 6.11091C416.665 2.88511 428.643 0.925392 440.727 0.265691C443.849 0.0913301 446.994 0.00276 450.161 -7.62939e-06C492.495 0.0424202 533.282 15.9125 564.508 44.4918C595.734 73.071 615.141 112.293 618.916 154.45C619.348 159.365 619.566 164.342 619.572 169.379Z" fill="#3F3D56"/>
<path d="M403.353 416.866C450.366 417.669 450.359 487.587 403.352 488.383C356.34 487.58 356.347 417.662 403.353 416.866Z" fill="#2F2E41"/>
<path d="M397.92 480.688H387.055V500.151H397.92V480.688Z" fill="#2F2E41"/>
<path d="M419.651 480.688H408.786V500.151H419.651V480.688Z" fill="#2F2E41"/>
<path d="M396.11 496.983C407.85 496.899 407.85 503.856 396.109 503.772C384.369 503.856 384.369 496.899 396.11 496.983Z" fill="#2F2E41"/>
<path d="M417.84 496.53C429.581 496.447 429.581 503.404 417.84 503.32C406.1 503.403 406.1 496.446 417.84 496.53Z" fill="#2F2E41"/>
<path d="M404.259 431.351C420.244 431.422 420.243 455.723 404.258 455.793C388.273 455.721 388.274 431.42 404.259 431.351Z" fill="white"/>
<path d="M404.259 439.498C409.545 439.421 409.545 447.723 404.258 447.645C398.972 447.723 398.972 439.42 404.259 439.498Z" fill="#3F3D56"/>
<path d="M368.66 419.37C361.94 388.74 413.411 377.254 420.356 407.831C423.243 420.76 413.782 425.529 399.507 428.716C385.232 431.903 371.548 432.301 368.66 419.37Z" fill="#CCCCCC"/>
<path d="M418.943 320.869C427.275 299.055 437.777 303.069 429.431 324.878C421.1 346.692 410.598 342.678 418.943 320.869Z" fill="#2F2E41"/>
<path d="M355.826 344.148C364.15 297.879 433.177 309.086 426.433 355.605C418.11 401.873 349.083 390.666 355.826 344.148Z" fill="#2F2E41"/>
<path d="M385.697 377.939H374.832V397.403H385.697V377.939Z" fill="#2F2E41"/>
<path d="M407.428 377.939H396.562V397.403H407.428V377.939Z" fill="#2F2E41"/>
<path d="M383.886 394.234C395.627 394.151 395.627 401.108 383.886 401.024C372.146 401.107 372.145 394.15 383.886 394.234Z" fill="#2F2E41"/>
<path d="M405.617 393.782C417.357 393.698 417.357 400.655 405.616 400.571C393.876 400.655 393.876 393.698 405.617 393.782Z" fill="#2F2E41"/>
<path d="M356.436 316.622C349.717 285.991 401.187 274.506 408.132 305.082C411.02 318.011 401.559 322.781 387.284 325.968C373.008 329.155 359.324 329.553 356.436 316.622Z" fill="#30C65A"/>
<path d="M334.689 325.622C337.217 318.822 370.674 334.687 367.003 340.947C364.476 347.746 331.019 331.881 334.689 325.622Z" fill="#2F2E41"/>
<path d="M516.504 300.849C518.798 298.879 515.571 291.357 509.296 284.049C503.02 276.74 496.073 272.412 493.778 274.381C491.483 276.351 494.71 283.873 500.985 291.182C507.261 298.49 514.209 302.818 516.504 300.849Z" fill="#2F2E41"/>
<path d="M436.852 291.181C443.128 283.873 446.355 276.351 444.06 274.381C441.765 272.412 434.817 276.74 428.542 284.049C422.266 291.357 419.039 298.879 421.334 300.849C423.629 302.818 430.577 298.49 436.852 291.181Z" fill="#2F2E41"/>
<path d="M746.63 112.921H697.634C695.431 112.921 693.319 112.046 691.761 110.489C690.204 108.932 689.329 106.82 689.329 104.618C689.329 102.416 690.204 100.304 691.761 98.7467C693.319 97.1896 695.431 96.3148 697.634 96.3148V97.9754C695.872 97.9754 694.182 98.6752 692.936 99.9209C691.69 101.167 690.99 102.856 690.99 104.618C690.99 106.379 691.69 108.069 692.936 109.315C694.182 110.56 695.872 111.26 697.634 111.26H746.63V112.921Z" fill="#E6E6E6"/>
<path d="M695.973 156.926H646.977C644.774 156.926 642.662 156.051 641.104 154.494C639.547 152.937 638.672 150.825 638.672 148.623C638.672 146.421 639.547 144.309 641.104 142.752C642.662 141.195 644.774 140.32 646.977 140.32V141.981C645.215 141.981 643.525 142.681 642.279 143.926C641.033 145.172 640.333 146.861 640.333 148.623C640.333 150.385 641.033 152.074 642.279 153.32C643.525 154.565 645.215 155.265 646.977 155.265H695.973V156.926Z" fill="#E6E6E6"/>
<path d="M759.917 200.101V198.44C761.679 198.44 763.369 197.74 764.615 196.495C765.861 195.249 766.561 193.56 766.561 191.798C766.561 190.036 765.861 188.347 764.615 187.101C763.369 185.855 761.679 185.156 759.917 185.156H710.921V183.495H759.917C762.12 183.495 764.232 184.37 765.789 185.927C767.347 187.484 768.222 189.596 768.222 191.798C768.222 194 767.347 196.112 765.789 197.669C764.232 199.226 762.12 200.101 759.917 200.101V200.101Z" fill="#E6E6E6"/>
<path d="M775.695 48.9884V47.3278C777.457 47.3278 779.147 46.628 780.393 45.3824C781.639 44.1367 782.339 42.4472 782.339 40.6855C782.339 38.9239 781.639 37.2344 780.393 35.9887C779.147 34.743 777.457 34.0432 775.695 34.0432H726.699V32.3827H775.695C777.898 32.3827 780.01 33.2574 781.568 34.8145C783.125 36.3716 784 38.4835 784 40.6855C784 42.8876 783.125 44.9995 781.568 46.5566C780.01 48.1137 777.898 48.9884 775.695 48.9884Z" fill="#E6E6E6"/>
<path d="M699.294 64.7639H650.298C648.096 64.7639 645.983 63.8891 644.426 62.332C642.869 60.7749 641.994 58.6631 641.994 56.461C641.994 54.259 642.869 52.1471 644.426 50.59C645.983 49.0329 648.096 48.1581 650.298 48.1581V49.8187C648.536 49.8187 646.846 50.5185 645.6 51.7642C644.354 53.0099 643.655 54.6994 643.655 56.461C643.655 58.2227 644.354 59.9122 645.6 61.1578C646.846 62.4035 648.536 63.1033 650.298 63.1033H699.294V64.7639Z" fill="#E6E6E6"/>
<path d="M220.958 222.519H171.962C169.759 222.519 167.647 221.644 166.09 220.087C164.532 218.53 163.657 216.418 163.657 214.216C163.657 212.014 164.532 209.902 166.09 208.345C167.647 206.788 169.759 205.913 171.962 205.913V207.573C170.2 207.573 168.51 208.273 167.264 209.519C166.018 210.765 165.318 212.454 165.318 214.216C165.318 215.977 166.018 217.667 167.264 218.913C168.51 220.158 170.2 220.858 171.962 220.858H220.958V222.519Z" fill="#E6E6E6"/>
<path d="M246.702 250.748V249.088C248.464 249.088 250.153 248.388 251.399 247.142C252.645 245.897 253.345 244.207 253.345 242.446C253.345 240.684 252.645 238.994 251.399 237.749C250.153 236.503 248.464 235.803 246.702 235.803H197.705V234.143H246.702C248.904 234.143 251.016 235.017 252.574 236.575C254.131 238.132 255.006 240.243 255.006 242.446C255.006 244.648 254.131 246.759 252.574 248.317C251.016 249.874 248.904 250.748 246.702 250.748V250.748Z" fill="#E6E6E6"/>
<path d="M170.301 266.524H121.304C119.102 266.524 116.99 265.649 115.432 264.092C113.875 262.535 113 260.423 113 258.221C113 256.019 113.875 253.907 115.432 252.35C116.99 250.793 119.102 249.918 121.304 249.918V251.579C119.542 251.579 117.853 252.279 116.607 253.524C115.361 254.77 114.661 256.459 114.661 258.221C114.661 259.983 115.361 261.672 116.607 262.918C117.853 264.163 119.542 264.863 121.304 264.863H170.301V266.524Z" fill="#E6E6E6"/>
<path d="M224.28 130.357H175.283C173.081 130.357 170.969 129.482 169.411 127.925C167.854 126.368 166.979 124.256 166.979 122.054C166.979 119.852 167.854 117.74 169.411 116.183C170.969 114.626 173.081 113.751 175.283 113.751V115.411C173.521 115.411 171.832 116.111 170.586 117.357C169.34 118.603 168.64 120.292 168.64 122.054C168.64 123.815 169.34 125.505 170.586 126.751C171.832 127.996 173.521 128.696 175.283 128.696H224.28V130.357Z" fill="#E6E6E6"/>
<path d="M250.024 158.586V156.926C251.786 156.926 253.475 156.226 254.721 154.98C255.967 153.735 256.667 152.045 256.667 150.284C256.667 148.522 255.967 146.832 254.721 145.587C253.475 144.341 251.786 143.641 250.024 143.641H201.027V141.981H250.024C252.226 141.981 254.338 142.855 255.896 144.413C257.453 145.97 258.328 148.082 258.328 150.284C258.328 152.486 257.453 154.597 255.896 156.155C254.338 157.712 252.226 158.586 250.024 158.586V158.586Z" fill="#E6E6E6"/>
<path d="M173.623 174.362H124.626C122.424 174.362 120.311 173.487 118.754 171.93C117.197 170.373 116.322 168.261 116.322 166.059C116.322 163.857 117.197 161.745 118.754 160.188C120.311 158.631 122.424 157.756 124.626 157.756V159.417C122.864 159.417 121.174 160.117 119.929 161.362C118.683 162.608 117.983 164.297 117.983 166.059C117.983 167.821 118.683 169.51 119.929 170.756C121.174 172.002 122.864 172.701 124.626 172.701H173.623V174.362Z" fill="#E6E6E6"/>
<path d="M577.219 386.085H528.223C526.02 386.085 523.908 385.211 522.351 383.654C520.793 382.096 519.918 379.985 519.918 377.782C519.918 375.58 520.793 373.469 522.351 371.911C523.908 370.354 526.02 369.48 528.223 369.48V371.14C526.461 371.14 524.771 371.84 523.525 373.086C522.279 374.331 521.579 376.021 521.579 377.782C521.579 379.544 522.279 381.234 523.525 382.479C524.771 383.725 526.461 384.425 528.223 384.425H577.219V386.085Z" fill="#E6E6E6"/>
<path d="M632.029 430.921V429.26C633.791 429.26 635.48 428.56 636.726 427.315C637.972 426.069 638.672 424.38 638.672 422.618C638.672 420.856 637.972 419.167 636.726 417.921C635.48 416.676 633.791 415.976 632.029 415.976H583.032V414.315H632.029C634.231 414.315 636.343 415.19 637.901 416.747C639.458 418.304 640.333 420.416 640.333 422.618C640.333 424.82 639.458 426.932 637.901 428.489C636.343 430.046 634.231 430.921 632.029 430.921V430.921Z" fill="#E6E6E6"/>
<path d="M532.375 439.224H483.379C481.176 439.224 479.064 438.349 477.507 436.792C475.949 435.235 475.074 433.123 475.074 430.921C475.074 428.719 475.949 426.607 477.507 425.05C479.064 423.493 481.176 422.618 483.379 422.618V424.279C481.617 424.279 479.927 424.978 478.681 426.224C477.435 427.47 476.735 429.159 476.735 430.921C476.735 432.683 477.435 434.372 478.681 435.618C479.927 436.863 481.617 437.563 483.379 437.563H532.375V439.224Z" fill="#E6E6E6"/>
<path d="M354.66 435.072V433.412C356.422 433.412 358.111 432.712 359.357 431.466C360.603 430.221 361.303 428.531 361.303 426.769C361.303 425.008 360.603 423.318 359.357 422.073C358.111 420.827 356.422 420.127 354.66 420.127H305.663V418.467H354.66C356.862 418.467 358.974 419.341 360.532 420.898C362.089 422.456 362.964 424.567 362.964 426.769C362.964 428.971 362.089 431.083 360.532 432.64C358.974 434.198 356.862 435.072 354.66 435.072Z" fill="#E6E6E6"/>
<path d="M206.84 455.83H157.844C155.642 455.83 153.529 454.955 151.972 453.398C150.414 451.841 149.54 449.729 149.54 447.527C149.54 445.325 150.414 443.213 151.972 441.656C153.529 440.099 155.642 439.224 157.844 439.224V440.884C156.082 440.884 154.392 441.584 153.146 442.83C151.9 444.075 151.2 445.765 151.2 447.527C151.2 449.288 151.9 450.978 153.146 452.223C154.392 453.469 156.082 454.169 157.844 454.169H206.84V455.83Z" fill="#E6E6E6"/>
<path d="M537.263 503.986H220.863C220.643 503.986 220.432 503.899 220.276 503.743C220.12 503.587 220.033 503.376 220.033 503.156C220.033 502.936 220.12 502.725 220.276 502.569C220.432 502.413 220.643 502.326 220.863 502.326H537.263C537.483 502.326 537.694 502.413 537.85 502.569C538.006 502.725 538.093 502.936 538.093 503.156C538.093 503.376 538.006 503.587 537.85 503.743C537.694 503.899 537.483 503.986 537.263 503.986Z" fill="#3F3D56"/>
<path d="M267.903 503.347C267.263 504.817 265.121 503.546 265.752 502.093C268.687 495.223 270.69 487.99 271.706 480.589C273.436 467.891 272.46 454.971 268.842 442.678C268.709 442.238 268.576 441.789 268.443 441.349C268.127 440.336 267.795 439.323 267.446 438.327C263.469 426.73 257.046 416.123 248.612 407.224C247.507 406.062 249.268 404.302 250.372 405.464C255.717 411.057 260.282 417.347 263.942 424.162C265.691 427.407 267.238 430.757 268.576 434.192C269.099 435.529 269.589 436.882 270.054 438.236C272.775 446.301 274.398 454.696 274.879 463.194C275.692 476.938 273.304 490.682 267.903 503.347Z" fill="#3F3D56"/>
<path d="M286.92 376.454C284.155 386.575 281.392 396.696 278.633 406.818C275.767 417.296 272.908 427.769 270.054 438.236C269.647 439.722 269.243 441.203 268.842 442.678C268.709 442.238 268.576 441.789 268.443 441.349C268.127 440.336 267.795 439.323 267.446 438.327C267.82 436.949 268.194 435.57 268.576 434.192C269.091 432.307 269.606 430.423 270.121 428.538C274.92 410.952 279.72 393.37 284.52 375.79C284.617 375.481 284.829 375.222 285.113 375.067C285.397 374.913 285.73 374.874 286.042 374.961C286.353 375.047 286.619 375.251 286.783 375.53C286.947 375.808 286.996 376.14 286.92 376.454V376.454Z" fill="#3F3D56"/>
<path d="M235.693 380.081C234.241 383.267 232.776 386.493 232.147 389.936C231.519 393.38 231.805 397.12 233.668 400.084C235.252 402.349 237.368 404.19 239.831 405.447C243.308 407.429 247.829 408.83 251.154 406.603C254.512 404.353 254.869 399.269 252.988 395.691C251.106 392.114 247.61 389.714 244.2 387.544C240.79 385.373 238.117 383.657 235.906 380.273L235.693 380.081Z" fill="#30C65A"/>
<path d="M294.864 347.625C291.538 348.717 288.173 349.827 285.214 351.7C282.256 353.572 279.7 356.318 278.784 359.696C278.192 362.396 278.272 365.2 279.018 367.862C279.917 371.761 281.951 376.034 285.843 376.968C289.774 377.912 293.755 374.728 295.11 370.92C296.465 367.112 295.86 362.915 295.144 358.937C294.428 354.959 293.879 351.831 294.868 347.912L294.864 347.625Z" fill="#30C65A"/>
<path d="M235.171 419.505C236.095 422.881 237.036 426.297 238.758 429.345C240.48 432.392 243.094 435.083 246.423 436.167C249.091 436.893 251.896 436.953 254.592 436.343C258.532 435.64 262.902 433.823 264.031 429.983C265.17 426.105 262.189 421.971 258.453 420.427C254.717 418.883 250.495 419.277 246.485 419.792C242.476 420.307 239.323 420.699 235.458 419.516L235.171 419.505Z" fill="#30C65A"/>
<path d="M245.137 463.51C246.061 466.886 247.001 470.302 248.723 473.35C250.445 476.398 253.06 479.088 256.389 480.172C259.056 480.898 261.861 480.959 264.557 480.348C268.498 479.646 272.868 477.828 273.996 473.988C275.136 470.11 272.154 465.976 268.418 464.432C264.682 462.888 260.46 463.282 256.451 463.797C252.441 464.313 249.289 464.705 245.423 463.521L245.137 463.51Z" fill="#30C65A"/>
<path d="M299.754 434.45C298.83 437.826 297.89 441.242 296.168 444.29C294.446 447.338 291.831 450.028 288.502 451.112C285.835 451.838 283.03 451.899 280.334 451.288C276.393 450.585 272.023 448.768 270.895 444.928C269.755 441.05 272.737 436.916 276.473 435.372C280.209 433.828 284.431 434.222 288.44 434.737C292.45 435.252 295.602 435.645 299.468 434.461L299.754 434.45Z" fill="#30C65A"/>
<path d="M309.72 389.614C308.796 392.991 307.855 396.407 306.133 399.454C304.411 402.502 301.796 405.192 298.468 406.277C295.8 407.003 292.995 407.063 290.299 406.452C286.359 405.75 281.989 403.932 280.86 400.093C279.721 396.215 282.702 392.081 286.438 390.537C290.174 388.993 294.396 389.387 298.406 389.902C302.415 390.417 305.567 390.809 309.433 389.625L309.72 389.614Z" fill="#30C65A"/>
</g>
<rect y="42" width="96" height="471" fill="white"/>
<defs>
<clipPath id="clip0">
<rect width="671" height="504" fill="white" transform="translate(113)"/>
</clipPath>
</defs>
</svg>
