<svg width="942" height="411" viewBox="0 0 942 411" fill="none" xmlns="http://www.w3.org/2000/svg">
<path d="M524.809 66.2562C605.337 37.0766 694.273 78.7027 723.452 159.231C752.632 239.759 711.006 328.694 630.478 357.874C549.95 387.054 461.014 345.428 431.834 264.9C402.655 184.372 444.281 95.4359 524.809 66.2562ZM625.884 345.197C699.411 318.554 737.417 237.351 710.775 163.824C684.132 90.2979 602.929 52.291 529.403 78.9336C455.876 105.576 417.869 186.779 444.512 260.306C471.154 333.832 552.358 371.839 625.884 345.197Z" fill="#35CAD3"/>
<path d="M241.644 169.525C272.927 158.189 307.477 174.36 318.812 205.644C330.148 236.927 313.977 271.477 282.694 282.812C251.41 294.148 216.861 277.977 205.525 246.694C194.189 215.41 210.36 180.861 241.644 169.525ZM280.909 277.887C309.473 267.537 324.237 235.992 313.887 207.428C303.537 178.865 271.992 164.1 243.428 174.45C214.865 184.8 200.1 216.346 210.45 244.909C220.8 273.473 252.346 288.237 280.909 277.887Z" fill="#30C65A"/>
<path d="M674.599 197.045C709.724 184.318 748.515 202.474 761.243 237.599C773.971 272.724 755.814 311.516 720.689 324.243C685.565 336.971 646.773 318.814 634.045 283.69C621.318 248.565 639.474 209.773 674.599 197.045ZM717.284 314.846C747.219 303.999 762.693 270.939 751.846 241.004C740.999 211.069 707.939 195.595 678.004 206.442C648.069 217.289 632.595 250.35 643.442 280.285C654.289 310.22 687.35 325.693 717.284 314.846Z" fill="#1EA945"/>
<path d="M88 129C88 153.301 68.3005 173 44 173C19.6995 173 0 153.301 0 129C0 104.699 19.6995 85 44 85C68.3005 85 88 104.699 88 129ZM6.50104 129C6.50104 149.71 23.2899 166.499 44 166.499C64.7101 166.499 81.499 149.71 81.499 129C81.499 108.29 64.7101 91.501 44 91.501C23.2899 91.501 6.50104 108.29 6.50104 129Z" fill="#54E07B"/>
<path d="M844.958 64.5288C838.906 40.9938 853.079 17.0092 876.614 10.9575C900.149 4.90584 924.133 19.0788 930.185 42.6138C936.237 66.1487 922.064 90.1334 898.529 96.185C874.994 102.237 851.009 88.0637 844.958 64.5288ZM923.889 44.2327C918.731 24.1751 898.29 12.0962 878.233 17.2537C858.175 22.4112 846.096 42.8522 851.254 62.9098C856.411 82.9674 876.852 95.0463 896.91 89.8888C916.967 84.7313 929.046 64.2904 923.889 44.2327Z" fill="#35A4D3"/>
<path d="M96.416 69.7715H74.6387V129H59.9902V69.7715H38.5059V57.9062H96.416V69.7715ZM117.656 81.9297C121.4 77.4375 126.104 75.1914 131.768 75.1914C143.226 75.1914 149.036 81.8483 149.199 95.1621V129H135.088V95.5527C135.088 92.5254 134.437 90.2956 133.135 88.8633C131.833 87.3984 129.668 86.666 126.641 86.666C122.507 86.666 119.512 88.2611 117.656 91.4512V129H103.545V54H117.656V81.9297ZM174.736 129H160.576V76.168H174.736V129ZM159.746 62.4961C159.746 60.3802 160.446 58.6387 161.846 57.2715C163.278 55.9043 165.215 55.2207 167.656 55.2207C170.065 55.2207 171.986 55.9043 173.418 57.2715C174.85 58.6387 175.566 60.3802 175.566 62.4961C175.566 64.6445 174.834 66.4023 173.369 67.7695C171.937 69.1367 170.033 69.8203 167.656 69.8203C165.28 69.8203 163.359 69.1367 161.895 67.7695C160.462 66.4023 159.746 64.6445 159.746 62.4961ZM215.02 114.4C215.02 112.675 214.157 111.324 212.432 110.348C210.739 109.339 208.005 108.443 204.229 107.662C191.663 105.025 185.381 99.6868 185.381 91.6465C185.381 86.959 187.318 83.0527 191.191 79.9277C195.098 76.7702 200.192 75.1914 206.475 75.1914C213.18 75.1914 218.535 76.7702 222.539 79.9277C226.576 83.0853 228.594 87.1868 228.594 92.2324H214.482C214.482 90.2142 213.831 88.554 212.529 87.252C211.227 85.9173 209.193 85.25 206.426 85.25C204.049 85.25 202.21 85.7871 200.908 86.8613C199.606 87.9355 198.955 89.3027 198.955 90.9629C198.955 92.5254 199.688 93.7949 201.152 94.7715C202.65 95.7155 205.156 96.5456 208.672 97.2617C212.188 97.9453 215.15 98.7266 217.559 99.6055C225.013 102.34 228.74 107.076 228.74 113.814C228.74 118.632 226.673 122.538 222.539 125.533C218.405 128.495 213.066 129.977 206.523 129.977C202.096 129.977 198.158 129.195 194.707 127.633C191.289 126.038 188.604 123.873 186.65 121.139C184.697 118.372 183.721 115.393 183.721 112.203H197.1C197.23 114.71 198.158 116.63 199.883 117.965C201.608 119.299 203.919 119.967 206.816 119.967C209.518 119.967 211.553 119.462 212.92 118.453C214.32 117.411 215.02 116.061 215.02 114.4ZM277.666 129H263.506V76.168H277.666V129ZM262.676 62.4961C262.676 60.3802 263.376 58.6387 264.775 57.2715C266.208 55.9043 268.145 55.2207 270.586 55.2207C272.995 55.2207 274.915 55.9043 276.348 57.2715C277.78 58.6387 278.496 60.3802 278.496 62.4961C278.496 64.6445 277.764 66.4023 276.299 67.7695C274.867 69.1367 272.962 69.8203 270.586 69.8203C268.21 69.8203 266.289 69.1367 264.824 67.7695C263.392 66.4023 262.676 64.6445 262.676 62.4961ZM317.949 114.4C317.949 112.675 317.087 111.324 315.361 110.348C313.669 109.339 310.934 108.443 307.158 107.662C294.593 105.025 288.311 99.6868 288.311 91.6465C288.311 86.959 290.247 83.0527 294.121 79.9277C298.027 76.7702 303.122 75.1914 309.404 75.1914C316.11 75.1914 321.465 76.7702 325.469 79.9277C329.505 83.0853 331.523 87.1868 331.523 92.2324H317.412C317.412 90.2142 316.761 88.554 315.459 87.252C314.157 85.9173 312.122 85.25 309.355 85.25C306.979 85.25 305.14 85.7871 303.838 86.8613C302.536 87.9355 301.885 89.3027 301.885 90.9629C301.885 92.5254 302.617 93.7949 304.082 94.7715C305.579 95.7155 308.086 96.5456 311.602 97.2617C315.117 97.9453 318.079 98.7266 320.488 99.6055C327.943 102.34 331.67 107.076 331.67 113.814C331.67 118.632 329.603 122.538 325.469 125.533C321.335 128.495 315.996 129.977 309.453 129.977C305.026 129.977 301.087 129.195 297.637 127.633C294.219 126.038 291.533 123.873 289.58 121.139C287.627 118.372 286.65 115.393 286.65 112.203H300.029C300.16 114.71 301.087 116.63 302.812 117.965C304.538 119.299 306.849 119.967 309.746 119.967C312.448 119.967 314.482 119.462 315.85 118.453C317.249 117.411 317.949 116.061 317.949 114.4ZM411.65 109.811L418.584 76.168H432.207L418.73 129H406.914L396.904 95.748L386.895 129H375.127L361.65 76.168H375.273L382.158 109.762L391.826 76.168H402.031L411.65 109.811ZM453.008 81.9297C456.751 77.4375 461.455 75.1914 467.119 75.1914C478.577 75.1914 484.388 81.8483 484.551 95.1621V129H470.439V95.5527C470.439 92.5254 469.788 90.2956 468.486 88.8633C467.184 87.3984 465.02 86.666 461.992 86.666C457.858 86.666 454.863 88.2611 453.008 91.4512V129H438.896V54H453.008V81.9297ZM519.512 129.977C511.764 129.977 505.449 127.6 500.566 122.848C495.716 118.095 493.291 111.764 493.291 103.854V102.486C493.291 97.1803 494.316 92.444 496.367 88.2773C498.418 84.0781 501.315 80.8555 505.059 78.6094C508.835 76.3307 513.132 75.1914 517.949 75.1914C525.176 75.1914 530.856 77.4701 534.99 82.0273C539.157 86.5846 541.24 93.0462 541.24 101.412V107.174H507.598C508.053 110.624 509.421 113.391 511.699 115.475C514.01 117.558 516.924 118.6 520.439 118.6C525.876 118.6 530.124 116.63 533.184 112.691L540.117 120.455C538.001 123.45 535.137 125.794 531.523 127.486C527.91 129.146 523.906 129.977 519.512 129.977ZM517.9 86.6172C515.101 86.6172 512.822 87.5612 511.064 89.4492C509.339 91.3372 508.232 94.0391 507.744 97.5547H527.373V96.4316C527.308 93.3066 526.462 90.8978 524.834 89.2051C523.206 87.4798 520.895 86.6172 517.9 86.6172ZM578.984 89.4004C577.064 89.14 575.371 89.0098 573.906 89.0098C568.568 89.0098 565.068 90.8164 563.408 94.4297V129H549.297V76.168H562.627L563.018 82.4668C565.85 77.6165 569.772 75.1914 574.785 75.1914C576.348 75.1914 577.812 75.403 579.18 75.8262L578.984 89.4004ZM609.16 129.977C601.413 129.977 595.098 127.6 590.215 122.848C585.365 118.095 582.939 111.764 582.939 103.854V102.486C582.939 97.1803 583.965 92.444 586.016 88.2773C588.066 84.0781 590.964 80.8555 594.707 78.6094C598.483 76.3307 602.78 75.1914 607.598 75.1914C614.824 75.1914 620.505 77.4701 624.639 82.0273C628.805 86.5846 630.889 93.0462 630.889 101.412V107.174H597.246C597.702 110.624 599.069 113.391 601.348 115.475C603.659 117.558 606.572 118.6 610.088 118.6C615.524 118.6 619.772 116.63 622.832 112.691L629.766 120.455C627.65 123.45 624.785 125.794 621.172 127.486C617.559 129.146 613.555 129.977 609.16 129.977ZM607.549 86.6172C604.749 86.6172 602.471 87.5612 600.713 89.4492C598.988 91.3372 597.881 94.0391 597.393 97.5547H617.021V96.4316C616.956 93.3066 616.11 90.8978 614.482 89.2051C612.855 87.4798 610.544 86.6172 607.549 86.6172ZM709.795 109.811L716.729 76.168H730.352L716.875 129H705.059L695.049 95.748L685.039 129H673.271L659.795 76.168H673.418L680.303 109.762L689.971 76.168H700.176L709.795 109.811ZM735.186 102.096C735.186 96.8548 736.195 92.1836 738.213 88.082C740.231 83.9805 743.128 80.8066 746.904 78.5605C750.713 76.3145 755.124 75.1914 760.137 75.1914C767.266 75.1914 773.076 77.3724 777.568 81.7344C782.093 86.0964 784.616 92.0208 785.137 99.5078L785.234 103.121C785.234 111.227 782.972 117.737 778.447 122.652C773.923 127.535 767.852 129.977 760.234 129.977C752.617 129.977 746.53 127.535 741.973 122.652C737.448 117.77 735.186 111.129 735.186 102.73V102.096ZM749.297 103.121C749.297 108.134 750.241 111.975 752.129 114.645C754.017 117.281 756.719 118.6 760.234 118.6C763.652 118.6 766.322 117.298 768.242 114.693C770.163 112.057 771.123 107.857 771.123 102.096C771.123 97.1803 770.163 93.3717 768.242 90.6699C766.322 87.9681 763.62 86.6172 760.137 86.6172C756.686 86.6172 754.017 87.9681 752.129 90.6699C750.241 93.3392 749.297 97.4896 749.297 103.121ZM823.613 89.4004C821.693 89.14 820 89.0098 818.535 89.0098C813.197 89.0098 809.697 90.8164 808.037 94.4297V129H793.926V76.168H807.256L807.646 82.4668C810.479 77.6165 814.401 75.1914 819.414 75.1914C820.977 75.1914 822.441 75.403 823.809 75.8262L823.613 89.4004ZM849.639 107.809L844.561 112.887V129H830.449V54H844.561V95.5527L847.295 92.0371L860.82 76.168H877.764L858.672 98.1895L879.424 129H863.213L849.639 107.809ZM238.652 219.193C238.652 211.088 240.573 204.561 244.414 199.613C248.288 194.665 253.496 192.191 260.039 192.191C265.833 192.191 270.342 194.177 273.564 198.148L274.15 193.168H286.943V244.242C286.943 248.865 285.885 252.885 283.77 256.303C281.686 259.721 278.74 262.325 274.932 264.115C271.123 265.906 266.663 266.801 261.553 266.801C257.679 266.801 253.903 266.02 250.225 264.457C246.546 262.927 243.763 260.941 241.875 258.5L248.125 249.906C251.641 253.845 255.905 255.814 260.918 255.814C264.661 255.814 267.575 254.805 269.658 252.787C271.742 250.801 272.783 247.969 272.783 244.291V241.459C269.528 245.137 265.247 246.977 259.941 246.977C253.594 246.977 248.451 244.503 244.512 239.555C240.605 234.574 238.652 227.982 238.652 219.779V219.193ZM252.764 220.219C252.764 225.004 253.724 228.764 255.645 231.498C257.565 234.2 260.202 235.551 263.555 235.551C267.852 235.551 270.928 233.939 272.783 230.717V208.5C270.895 205.277 267.852 203.666 263.652 203.666C260.267 203.666 257.598 205.049 255.645 207.816C253.724 210.583 252.764 214.717 252.764 220.219ZM322.148 246.977C314.401 246.977 308.086 244.6 303.203 239.848C298.353 235.095 295.928 228.764 295.928 220.854V219.486C295.928 214.18 296.953 209.444 299.004 205.277C301.055 201.078 303.952 197.855 307.695 195.609C311.471 193.331 315.768 192.191 320.586 192.191C327.812 192.191 333.493 194.47 337.627 199.027C341.794 203.585 343.877 210.046 343.877 218.412V224.174H310.234C310.69 227.624 312.057 230.391 314.336 232.475C316.647 234.558 319.561 235.6 323.076 235.6C328.512 235.6 332.76 233.63 335.82 229.691L342.754 237.455C340.638 240.45 337.773 242.794 334.16 244.486C330.547 246.146 326.543 246.977 322.148 246.977ZM320.537 203.617C317.738 203.617 315.459 204.561 313.701 206.449C311.976 208.337 310.869 211.039 310.381 214.555H330.01V213.432C329.945 210.307 329.098 207.898 327.471 206.205C325.843 204.48 323.532 203.617 320.537 203.617ZM368.828 180.18V193.168H377.861V203.52H368.828V229.887C368.828 231.84 369.202 233.24 369.951 234.086C370.7 234.932 372.132 235.355 374.248 235.355C375.811 235.355 377.194 235.242 378.398 235.014V245.707C375.632 246.553 372.783 246.977 369.854 246.977C359.958 246.977 354.912 241.98 354.717 231.986V203.52H347.002V193.168H354.717V180.18H368.828ZM414.336 231.4C414.336 229.675 413.473 228.324 411.748 227.348C410.055 226.339 407.321 225.443 403.545 224.662C390.98 222.025 384.697 216.687 384.697 208.646C384.697 203.959 386.634 200.053 390.508 196.928C394.414 193.77 399.508 192.191 405.791 192.191C412.497 192.191 417.852 193.77 421.855 196.928C425.892 200.085 427.91 204.187 427.91 209.232H413.799C413.799 207.214 413.148 205.554 411.846 204.252C410.544 202.917 408.509 202.25 405.742 202.25C403.366 202.25 401.527 202.787 400.225 203.861C398.923 204.936 398.271 206.303 398.271 207.963C398.271 209.525 399.004 210.795 400.469 211.771C401.966 212.715 404.473 213.546 407.988 214.262C411.504 214.945 414.466 215.727 416.875 216.605C424.329 219.34 428.057 224.076 428.057 230.814C428.057 235.632 425.99 239.538 421.855 242.533C417.721 245.495 412.383 246.977 405.84 246.977C401.413 246.977 397.474 246.195 394.023 244.633C390.605 243.038 387.92 240.873 385.967 238.139C384.014 235.372 383.037 232.393 383.037 229.203H396.416C396.546 231.71 397.474 233.63 399.199 234.965C400.924 236.299 403.236 236.967 406.133 236.967C408.835 236.967 410.869 236.462 412.236 235.453C413.636 234.411 414.336 233.061 414.336 231.4ZM459.893 219.193C459.893 210.958 461.732 204.398 465.41 199.516C469.121 194.633 474.183 192.191 480.596 192.191C485.739 192.191 489.987 194.112 493.34 197.953V171H507.5V246H494.756L494.072 240.385C490.557 244.779 486.032 246.977 480.498 246.977C474.281 246.977 469.284 244.535 465.508 239.652C461.764 234.737 459.893 227.917 459.893 219.193ZM474.004 220.219C474.004 225.167 474.867 228.959 476.592 231.596C478.317 234.232 480.824 235.551 484.111 235.551C488.473 235.551 491.549 233.712 493.34 230.033V209.184C491.582 205.505 488.538 203.666 484.209 203.666C477.406 203.666 474.004 209.184 474.004 220.219ZM516.24 219.096C516.24 213.855 517.249 209.184 519.268 205.082C521.286 200.98 524.183 197.807 527.959 195.561C531.768 193.314 536.178 192.191 541.191 192.191C548.32 192.191 554.131 194.372 558.623 198.734C563.148 203.096 565.671 209.021 566.191 216.508L566.289 220.121C566.289 228.227 564.027 234.737 559.502 239.652C554.977 244.535 548.906 246.977 541.289 246.977C533.672 246.977 527.585 244.535 523.027 239.652C518.503 234.77 516.24 228.129 516.24 219.73V219.096ZM530.352 220.121C530.352 225.134 531.296 228.975 533.184 231.645C535.072 234.281 537.773 235.6 541.289 235.6C544.707 235.6 547.376 234.298 549.297 231.693C551.217 229.057 552.178 224.857 552.178 219.096C552.178 214.18 551.217 210.372 549.297 207.67C547.376 204.968 544.674 203.617 541.191 203.617C537.741 203.617 535.072 204.968 533.184 207.67C531.296 210.339 530.352 214.49 530.352 220.121ZM587.969 193.168L588.408 199.271C592.184 194.551 597.246 192.191 603.594 192.191C609.193 192.191 613.359 193.835 616.094 197.123C618.828 200.411 620.228 205.326 620.293 211.869V246H606.182V212.211C606.182 209.216 605.531 207.051 604.229 205.717C602.926 204.35 600.762 203.666 597.734 203.666C593.763 203.666 590.785 205.359 588.799 208.744V246H574.688V193.168H587.969ZM655.352 246.977C647.604 246.977 641.289 244.6 636.406 239.848C631.556 235.095 629.131 228.764 629.131 220.854V219.486C629.131 214.18 630.156 209.444 632.207 205.277C634.258 201.078 637.155 197.855 640.898 195.609C644.674 193.331 648.971 192.191 653.789 192.191C661.016 192.191 666.696 194.47 670.83 199.027C674.997 203.585 677.08 210.046 677.08 218.412V224.174H643.438C643.893 227.624 645.26 230.391 647.539 232.475C649.85 234.558 652.764 235.6 656.279 235.6C661.715 235.6 665.964 233.63 669.023 229.691L675.957 237.455C673.841 240.45 670.977 242.794 667.363 244.486C663.75 246.146 659.746 246.977 655.352 246.977ZM653.74 203.617C650.941 203.617 648.662 204.561 646.904 206.449C645.179 208.337 644.072 211.039 643.584 214.555H663.213V213.432C663.148 210.307 662.301 207.898 660.674 206.205C659.046 204.48 656.735 203.617 653.74 203.617Z" fill="#070836"/>
</svg>
